%TF.GenerationSoftware,KiCad,Pcbnew,8.0.8-8.0.8-0~ubuntu24.04.1*%
%TF.CreationDate,2025-02-09T16:52:58+07:00*%
%TF.ProjectId,wemos32-12-channel-relays-ssr-rev-2,77656d6f-7333-4322-9d31-322d6368616e,1.0*%
%TF.SameCoordinates,Original*%
%TF.FileFunction,Soldermask,Bot*%
%TF.FilePolarity,Negative*%
%FSLAX46Y46*%
G04 Gerber Fmt 4.6, Leading zero omitted, Abs format (unit mm)*
G04 Created by KiCad (PCBNEW 8.0.8-8.0.8-0~ubuntu24.04.1) date 2025-02-09 16:52:58*
%MOMM*%
%LPD*%
G01*
G04 APERTURE LIST*
G04 Aperture macros list*
%AMRoundRect*
0 Rectangle with rounded corners*
0 $1 Rounding radius*
0 $2 $3 $4 $5 $6 $7 $8 $9 X,Y pos of 4 corners*
0 Add a 4 corners polygon primitive as box body*
4,1,4,$2,$3,$4,$5,$6,$7,$8,$9,$2,$3,0*
0 Add four circle primitives for the rounded corners*
1,1,$1+$1,$2,$3*
1,1,$1+$1,$4,$5*
1,1,$1+$1,$6,$7*
1,1,$1+$1,$8,$9*
0 Add four rect primitives between the rounded corners*
20,1,$1+$1,$2,$3,$4,$5,0*
20,1,$1+$1,$4,$5,$6,$7,0*
20,1,$1+$1,$6,$7,$8,$9,0*
20,1,$1+$1,$8,$9,$2,$3,0*%
G04 Aperture macros list end*
%ADD10RoundRect,0.250000X-0.600000X-0.750000X0.600000X-0.750000X0.600000X0.750000X-0.600000X0.750000X0*%
%ADD11O,1.700000X2.000000*%
%ADD12R,2.540000X2.540000*%
%ADD13C,2.540000*%
%ADD14R,1.700000X1.700000*%
%ADD15O,1.700000X1.700000*%
%ADD16C,5.600000*%
%ADD17C,2.300000*%
%ADD18RoundRect,0.102000X-0.754000X0.754000X-0.754000X-0.754000X0.754000X-0.754000X0.754000X0.754000X0*%
%ADD19C,1.712000*%
%ADD20R,3.500000X3.500000*%
%ADD21RoundRect,0.750000X-1.000000X0.750000X-1.000000X-0.750000X1.000000X-0.750000X1.000000X0.750000X0*%
%ADD22RoundRect,0.875000X-0.875000X0.875000X-0.875000X-0.875000X0.875000X-0.875000X0.875000X0.875000X0*%
%ADD23RoundRect,0.102000X-0.780000X0.780000X-0.780000X-0.780000X0.780000X-0.780000X0.780000X0.780000X0*%
%ADD24C,1.764000*%
G04 APERTURE END LIST*
D10*
%TO.C,J19*%
X70250000Y-59700000D03*
D11*
X72750000Y-59700000D03*
%TD*%
D12*
%TO.C,J3*%
X75144500Y-153950000D03*
D13*
X82764500Y-153950000D03*
%TD*%
D14*
%TO.C,J14*%
X133500000Y-72350000D03*
D15*
X133500000Y-69810000D03*
X133500000Y-67270000D03*
X133500000Y-64730000D03*
X133500000Y-62190000D03*
X133500000Y-59650000D03*
%TD*%
D10*
%TO.C,J26*%
X81750000Y-71700000D03*
D11*
X84250000Y-71700000D03*
%TD*%
D16*
%TO.C,H1*%
X275000000Y-59000000D03*
%TD*%
D10*
%TO.C,J20*%
X81750000Y-59700000D03*
D11*
X84250000Y-59700000D03*
%TD*%
D12*
%TO.C,J5*%
X115599100Y-153950000D03*
D13*
X123219100Y-153950000D03*
%TD*%
D17*
%TO.C,F12*%
X265465400Y-123750000D03*
X265465400Y-128350000D03*
X265465400Y-139650000D03*
X265465400Y-144250000D03*
%TD*%
D18*
%TO.C,K1*%
X32234100Y-144160000D03*
D19*
X32234100Y-136540000D03*
X32234100Y-126380000D03*
X32234100Y-123840000D03*
%TD*%
D12*
%TO.C,J2*%
X54917300Y-153950000D03*
D13*
X62537300Y-153950000D03*
%TD*%
D10*
%TO.C,J23*%
X47250000Y-71700000D03*
D11*
X49750000Y-71700000D03*
%TD*%
D10*
%TO.C,J24*%
X58750000Y-71700000D03*
D11*
X61250000Y-71700000D03*
%TD*%
D14*
%TO.C,J13*%
X112500000Y-59650000D03*
D15*
X112500000Y-62190000D03*
X112500000Y-64730000D03*
X112500000Y-67270000D03*
X112500000Y-69810000D03*
X112500000Y-72350000D03*
%TD*%
D16*
%TO.C,H4*%
X22000000Y-153000000D03*
%TD*%
D12*
%TO.C,J8*%
X176280900Y-153950000D03*
D13*
X183900900Y-153950000D03*
%TD*%
D10*
%TO.C,J27*%
X93250000Y-71700000D03*
D11*
X95750000Y-71700000D03*
%TD*%
D12*
%TO.C,J12*%
X257190000Y-153950000D03*
D13*
X264810000Y-153950000D03*
%TD*%
D12*
%TO.C,J4*%
X95371800Y-153950000D03*
D13*
X102991800Y-153950000D03*
%TD*%
D18*
%TO.C,K4*%
X93234100Y-144160000D03*
D19*
X93234100Y-136540000D03*
X93234100Y-126380000D03*
X93234100Y-123840000D03*
%TD*%
D17*
%TO.C,F10*%
X225500000Y-123750000D03*
X225500000Y-128350000D03*
X225500000Y-139650000D03*
X225500000Y-144250000D03*
%TD*%
D12*
%TO.C,J7*%
X156053600Y-153950000D03*
D13*
X163673600Y-153950000D03*
%TD*%
D10*
%TO.C,J17*%
X47250000Y-59700000D03*
D11*
X49750000Y-59700000D03*
%TD*%
D16*
%TO.C,H3*%
X22000000Y-60500000D03*
%TD*%
D18*
%TO.C,K8*%
X173734200Y-144160000D03*
D19*
X173734200Y-136540000D03*
X173734200Y-126380000D03*
X173734200Y-123840000D03*
%TD*%
D12*
%TO.C,J10*%
X216735400Y-153950000D03*
D13*
X224355400Y-153950000D03*
%TD*%
D18*
%TO.C,K11*%
X234734200Y-144160000D03*
D19*
X234734200Y-136540000D03*
X234734200Y-126380000D03*
X234734200Y-123840000D03*
%TD*%
D18*
%TO.C,K7*%
X153734100Y-144160000D03*
D19*
X153734100Y-136540000D03*
X153734100Y-126380000D03*
X153734100Y-123840000D03*
%TD*%
D12*
%TO.C,J6*%
X135826400Y-153950000D03*
D13*
X143446400Y-153950000D03*
%TD*%
D18*
%TO.C,K3*%
X73234200Y-144160000D03*
D19*
X73234200Y-136540000D03*
X73234200Y-126380000D03*
X73234200Y-123840000D03*
%TD*%
D17*
%TO.C,F7*%
X164500000Y-123750000D03*
X164500000Y-128350000D03*
X164500000Y-139650000D03*
X164500000Y-144250000D03*
%TD*%
D10*
%TO.C,J22*%
X35750000Y-71700000D03*
D11*
X38250000Y-71700000D03*
%TD*%
D18*
%TO.C,K12*%
X254699500Y-144160000D03*
D19*
X254699500Y-136540000D03*
X254699500Y-126380000D03*
X254699500Y-123840000D03*
%TD*%
D16*
%TO.C,H2*%
X275500000Y-153000000D03*
%TD*%
D18*
%TO.C,K5*%
X113234200Y-144160000D03*
D19*
X113234200Y-136540000D03*
X113234200Y-126380000D03*
X113234200Y-123840000D03*
%TD*%
D17*
%TO.C,F9*%
X204500000Y-123750000D03*
X204500000Y-128350000D03*
X204500000Y-139650000D03*
X204500000Y-144250000D03*
%TD*%
%TO.C,F2*%
X63500000Y-123750000D03*
X63500000Y-128350000D03*
X63500000Y-139650000D03*
X63500000Y-144250000D03*
%TD*%
D18*
%TO.C,K10*%
X214734100Y-144160000D03*
D19*
X214734100Y-136540000D03*
X214734100Y-126380000D03*
X214734100Y-123840000D03*
%TD*%
D14*
%TO.C,J28*%
X34500000Y-80500000D03*
D15*
X37040000Y-80500000D03*
X39580000Y-80500000D03*
X42120000Y-80500000D03*
%TD*%
D17*
%TO.C,F1*%
X43000000Y-123750000D03*
X43000000Y-128350000D03*
X43000000Y-139650000D03*
X43000000Y-144250000D03*
%TD*%
%TO.C,F3*%
X84000000Y-123750000D03*
X84000000Y-128350000D03*
X84000000Y-139650000D03*
X84000000Y-144250000D03*
%TD*%
D10*
%TO.C,J21*%
X93250000Y-59700000D03*
D11*
X95750000Y-59700000D03*
%TD*%
D10*
%TO.C,J16*%
X35750000Y-59700000D03*
D11*
X38250000Y-59700000D03*
%TD*%
D17*
%TO.C,F8*%
X184500000Y-123750000D03*
X184500000Y-128350000D03*
X184500000Y-139650000D03*
X184500000Y-144250000D03*
%TD*%
D12*
%TO.C,J11*%
X236962700Y-153950000D03*
D13*
X244582700Y-153950000D03*
%TD*%
D10*
%TO.C,J18*%
X58750000Y-59700000D03*
D11*
X61250000Y-59700000D03*
%TD*%
D17*
%TO.C,F5*%
X124000000Y-123750000D03*
X124000000Y-128350000D03*
X124000000Y-139650000D03*
X124000000Y-144250000D03*
%TD*%
D12*
%TO.C,J1*%
X34690000Y-153950000D03*
D13*
X42310000Y-153950000D03*
%TD*%
D12*
%TO.C,J9*%
X196508200Y-153950000D03*
D13*
X204128200Y-153950000D03*
%TD*%
D20*
%TO.C,J15*%
X252457500Y-66000000D03*
D21*
X252457500Y-60000000D03*
D22*
X247757500Y-63000000D03*
%TD*%
D18*
%TO.C,K2*%
X52734100Y-144160000D03*
D19*
X52734100Y-136540000D03*
X52734100Y-126380000D03*
X52734100Y-123840000D03*
%TD*%
D10*
%TO.C,J25*%
X70250000Y-71700000D03*
D11*
X72750000Y-71700000D03*
%TD*%
D18*
%TO.C,K6*%
X133433700Y-144160000D03*
D19*
X133433700Y-136540000D03*
X133433700Y-126380000D03*
X133433700Y-123840000D03*
%TD*%
D17*
%TO.C,F4*%
X104000000Y-123750000D03*
X104000000Y-128350000D03*
X104000000Y-139650000D03*
X104000000Y-144250000D03*
%TD*%
D18*
%TO.C,K9*%
X193734100Y-144160000D03*
D19*
X193734100Y-136540000D03*
X193734100Y-126380000D03*
X193734100Y-123840000D03*
%TD*%
D17*
%TO.C,F6*%
X144199600Y-123750000D03*
X144199600Y-128350000D03*
X144199600Y-139650000D03*
X144199600Y-144250000D03*
%TD*%
D23*
%TO.C,U8*%
X221260000Y-57800000D03*
D24*
X218720000Y-57800000D03*
X216180000Y-57800000D03*
X213640000Y-57800000D03*
X211100000Y-57800000D03*
X208560000Y-57800000D03*
X206020000Y-57800000D03*
X203480000Y-57800000D03*
X200940000Y-57800000D03*
X198400000Y-57800000D03*
X195860000Y-57800000D03*
X193320000Y-57800000D03*
X190780000Y-57800000D03*
X188240000Y-57800000D03*
X185700000Y-57800000D03*
X183160000Y-57800000D03*
X180620000Y-57800000D03*
X178080000Y-57800000D03*
X175540000Y-57800000D03*
X221260000Y-83200000D03*
X218720000Y-83200000D03*
X216180000Y-83200000D03*
X213640000Y-83200000D03*
X211100000Y-83200000D03*
X208560000Y-83200000D03*
X206020000Y-83200000D03*
X203480000Y-83200000D03*
X200940000Y-83200000D03*
X198400000Y-83200000D03*
X195860000Y-83200000D03*
X193320000Y-83200000D03*
X190780000Y-83200000D03*
X188240000Y-83200000D03*
X185700000Y-83200000D03*
X183160000Y-83200000D03*
X180620000Y-83200000D03*
X178080000Y-83200000D03*
X175540000Y-83200000D03*
%TD*%
D17*
%TO.C,F11*%
X245500000Y-123750000D03*
X245500000Y-128350000D03*
X245500000Y-139650000D03*
X245500000Y-144250000D03*
%TD*%
M02*
