%TF.GenerationSoftware,KiCad,Pcbnew,8.0.8-8.0.8-0~ubuntu24.04.1*%
%TF.CreationDate,2025-02-09T16:52:58+07:00*%
%TF.ProjectId,wemos32-12-channel-relays-ssr-rev-2,77656d6f-7333-4322-9d31-322d6368616e,1.0*%
%TF.SameCoordinates,Original*%
%TF.FileFunction,Soldermask,Top*%
%TF.FilePolarity,Negative*%
%FSLAX46Y46*%
G04 Gerber Fmt 4.6, Leading zero omitted, Abs format (unit mm)*
G04 Created by KiCad (PCBNEW 8.0.8-8.0.8-0~ubuntu24.04.1) date 2025-02-09 16:52:58*
%MOMM*%
%LPD*%
G01*
G04 APERTURE LIST*
G04 Aperture macros list*
%AMRoundRect*
0 Rectangle with rounded corners*
0 $1 Rounding radius*
0 $2 $3 $4 $5 $6 $7 $8 $9 X,Y pos of 4 corners*
0 Add a 4 corners polygon primitive as box body*
4,1,4,$2,$3,$4,$5,$6,$7,$8,$9,$2,$3,0*
0 Add four circle primitives for the rounded corners*
1,1,$1+$1,$2,$3*
1,1,$1+$1,$4,$5*
1,1,$1+$1,$6,$7*
1,1,$1+$1,$8,$9*
0 Add four rect primitives between the rounded corners*
20,1,$1+$1,$2,$3,$4,$5,0*
20,1,$1+$1,$4,$5,$6,$7,0*
20,1,$1+$1,$6,$7,$8,$9,0*
20,1,$1+$1,$8,$9,$2,$3,0*%
G04 Aperture macros list end*
%ADD10RoundRect,0.250000X0.450000X-0.350000X0.450000X0.350000X-0.450000X0.350000X-0.450000X-0.350000X0*%
%ADD11RoundRect,0.250000X-0.600000X-0.750000X0.600000X-0.750000X0.600000X0.750000X-0.600000X0.750000X0*%
%ADD12O,1.700000X2.000000*%
%ADD13RoundRect,0.150000X-0.150000X0.587500X-0.150000X-0.587500X0.150000X-0.587500X0.150000X0.587500X0*%
%ADD14R,2.540000X2.540000*%
%ADD15C,2.540000*%
%ADD16R,1.700000X1.700000*%
%ADD17O,1.700000X1.700000*%
%ADD18C,5.600000*%
%ADD19C,2.300000*%
%ADD20RoundRect,0.102000X-0.754000X0.754000X-0.754000X-0.754000X0.754000X-0.754000X0.754000X0.754000X0*%
%ADD21C,1.712000*%
%ADD22RoundRect,0.250000X-0.450000X0.350000X-0.450000X-0.350000X0.450000X-0.350000X0.450000X0.350000X0*%
%ADD23RoundRect,0.250000X-0.325000X-0.450000X0.325000X-0.450000X0.325000X0.450000X-0.325000X0.450000X0*%
%ADD24RoundRect,0.250000X-0.337500X-0.475000X0.337500X-0.475000X0.337500X0.475000X-0.337500X0.475000X0*%
%ADD25R,2.000000X1.500000*%
%ADD26R,2.000000X3.800000*%
%ADD27R,3.500000X3.500000*%
%ADD28RoundRect,0.750000X-1.000000X0.750000X-1.000000X-0.750000X1.000000X-0.750000X1.000000X0.750000X0*%
%ADD29RoundRect,0.875000X-0.875000X0.875000X-0.875000X-0.875000X0.875000X-0.875000X0.875000X0.875000X0*%
%ADD30RoundRect,0.250000X-0.350000X-0.450000X0.350000X-0.450000X0.350000X0.450000X-0.350000X0.450000X0*%
%ADD31RoundRect,0.102000X-0.780000X0.780000X-0.780000X-0.780000X0.780000X-0.780000X0.780000X0.780000X0*%
%ADD32C,1.764000*%
G04 APERTURE END LIST*
D10*
%TO.C,R14*%
X123000000Y-103000000D03*
X123000000Y-101000000D03*
%TD*%
D11*
%TO.C,J19*%
X70250000Y-59700000D03*
D12*
X72750000Y-59700000D03*
%TD*%
D13*
%TO.C,Q10*%
X217450000Y-112562500D03*
X215550000Y-112562500D03*
X216500000Y-114437500D03*
%TD*%
%TO.C,Q4*%
X96950000Y-112562500D03*
X95050000Y-112562500D03*
X96000000Y-114437500D03*
%TD*%
D14*
%TO.C,J3*%
X75144500Y-153950000D03*
D15*
X82764500Y-153950000D03*
%TD*%
D16*
%TO.C,J14*%
X133500000Y-72350000D03*
D17*
X133500000Y-69810000D03*
X133500000Y-67270000D03*
X133500000Y-64730000D03*
X133500000Y-62190000D03*
X133500000Y-59650000D03*
%TD*%
D11*
%TO.C,J26*%
X81750000Y-71700000D03*
D12*
X84250000Y-71700000D03*
%TD*%
D18*
%TO.C,H1*%
X275000000Y-59000000D03*
%TD*%
D11*
%TO.C,J20*%
X81750000Y-59700000D03*
D12*
X84250000Y-59700000D03*
%TD*%
D14*
%TO.C,J5*%
X115599100Y-153950000D03*
D15*
X123219100Y-153950000D03*
%TD*%
D19*
%TO.C,F12*%
X265465400Y-123750000D03*
X265465400Y-128350000D03*
X265465400Y-139650000D03*
X265465400Y-144250000D03*
%TD*%
D20*
%TO.C,K1*%
X32234100Y-144160000D03*
D21*
X32234100Y-136540000D03*
X32234100Y-126380000D03*
X32234100Y-123840000D03*
%TD*%
D22*
%TO.C,R32*%
X189500000Y-112500000D03*
X189500000Y-114500000D03*
%TD*%
D14*
%TO.C,J2*%
X54917300Y-153950000D03*
D15*
X62537300Y-153950000D03*
%TD*%
D22*
%TO.C,R33*%
X209000000Y-112500000D03*
X209000000Y-114500000D03*
%TD*%
%TO.C,R36*%
X249500000Y-112500000D03*
X249500000Y-114500000D03*
%TD*%
D13*
%TO.C,Q2*%
X56450000Y-112562500D03*
X54550000Y-112562500D03*
X55500000Y-114437500D03*
%TD*%
D11*
%TO.C,J23*%
X47250000Y-71700000D03*
D12*
X49750000Y-71700000D03*
%TD*%
D11*
%TO.C,J24*%
X58750000Y-71700000D03*
D12*
X61250000Y-71700000D03*
%TD*%
D16*
%TO.C,J13*%
X112500000Y-59650000D03*
D17*
X112500000Y-62190000D03*
X112500000Y-64730000D03*
X112500000Y-67270000D03*
X112500000Y-69810000D03*
X112500000Y-72350000D03*
%TD*%
D18*
%TO.C,H4*%
X22000000Y-153000000D03*
%TD*%
D10*
%TO.C,R7*%
X84000000Y-103000000D03*
X84000000Y-101000000D03*
%TD*%
D22*
%TO.C,R6*%
X70000000Y-112500000D03*
X70000000Y-114500000D03*
%TD*%
D14*
%TO.C,J8*%
X176280900Y-153950000D03*
D15*
X183900900Y-153950000D03*
%TD*%
D11*
%TO.C,J27*%
X93250000Y-71700000D03*
D12*
X95750000Y-71700000D03*
%TD*%
D23*
%TO.C,D5*%
X62475000Y-113500000D03*
X64525000Y-113500000D03*
%TD*%
D14*
%TO.C,J12*%
X257190000Y-153950000D03*
D15*
X264810000Y-153950000D03*
%TD*%
D13*
%TO.C,Q12*%
X256950000Y-112562500D03*
X255050000Y-112562500D03*
X256000000Y-114437500D03*
%TD*%
D10*
%TO.C,R2*%
X43000000Y-103000000D03*
X43000000Y-101000000D03*
%TD*%
D22*
%TO.C,R27*%
X196000000Y-101000000D03*
X196000000Y-103000000D03*
%TD*%
D14*
%TO.C,J4*%
X95371800Y-153950000D03*
D15*
X102991800Y-153950000D03*
%TD*%
D10*
%TO.C,R20*%
X183000000Y-103000000D03*
X183000000Y-101000000D03*
%TD*%
D20*
%TO.C,K4*%
X93234100Y-144160000D03*
D21*
X93234100Y-136540000D03*
X93234100Y-126380000D03*
X93234100Y-123840000D03*
%TD*%
D22*
%TO.C,R35*%
X169000000Y-112500000D03*
X169000000Y-114500000D03*
%TD*%
D19*
%TO.C,F10*%
X225500000Y-123750000D03*
X225500000Y-128350000D03*
X225500000Y-139650000D03*
X225500000Y-144250000D03*
%TD*%
D10*
%TO.C,R4*%
X63000000Y-103000000D03*
X63000000Y-101000000D03*
%TD*%
D14*
%TO.C,J7*%
X156053600Y-153950000D03*
D15*
X163673600Y-153950000D03*
%TD*%
D11*
%TO.C,J17*%
X47250000Y-59700000D03*
D12*
X49750000Y-59700000D03*
%TD*%
D10*
%TO.C,R21*%
X203000000Y-103000000D03*
X203000000Y-101000000D03*
%TD*%
D23*
%TO.C,D3*%
X41975000Y-113500000D03*
X44025000Y-113500000D03*
%TD*%
D10*
%TO.C,R3*%
X35000000Y-103000000D03*
X35000000Y-101000000D03*
%TD*%
D23*
%TO.C,D25*%
X263975000Y-113500000D03*
X266025000Y-113500000D03*
%TD*%
D13*
%TO.C,Q9*%
X196950000Y-112562500D03*
X195050000Y-112562500D03*
X196000000Y-114437500D03*
%TD*%
D18*
%TO.C,H3*%
X22000000Y-60500000D03*
%TD*%
D23*
%TO.C,D13*%
X142475000Y-113500000D03*
X144525000Y-113500000D03*
%TD*%
D10*
%TO.C,R11*%
X103000000Y-103000000D03*
X103000000Y-101000000D03*
%TD*%
D20*
%TO.C,K8*%
X173734200Y-144160000D03*
D21*
X173734200Y-136540000D03*
X173734200Y-126380000D03*
X173734200Y-123840000D03*
%TD*%
D22*
%TO.C,R34*%
X230000000Y-112500000D03*
X230000000Y-114500000D03*
%TD*%
%TO.C,R26*%
X176000000Y-101000000D03*
X176000000Y-103000000D03*
%TD*%
D10*
%TO.C,R25*%
X264500000Y-103000000D03*
X264500000Y-101000000D03*
%TD*%
D24*
%TO.C,C6*%
X245462500Y-74500000D03*
X247537500Y-74500000D03*
%TD*%
D22*
%TO.C,R30*%
X236000000Y-101000000D03*
X236000000Y-103000000D03*
%TD*%
D10*
%TO.C,R23*%
X162500000Y-103000000D03*
X162500000Y-101000000D03*
%TD*%
D14*
%TO.C,J10*%
X216735400Y-153950000D03*
D15*
X224355400Y-153950000D03*
%TD*%
D13*
%TO.C,Q6*%
X136950000Y-112562500D03*
X135050000Y-112562500D03*
X136000000Y-114437500D03*
%TD*%
D23*
%TO.C,D24*%
X242975000Y-113500000D03*
X245025000Y-113500000D03*
%TD*%
D22*
%TO.C,R16*%
X129000000Y-112500000D03*
X129000000Y-114500000D03*
%TD*%
D20*
%TO.C,K11*%
X234734200Y-144160000D03*
D21*
X234734200Y-136540000D03*
X234734200Y-126380000D03*
X234734200Y-123840000D03*
%TD*%
D23*
%TO.C,D22*%
X223475000Y-113500000D03*
X225525000Y-113500000D03*
%TD*%
D13*
%TO.C,Q3*%
X77450000Y-112562500D03*
X75550000Y-112562500D03*
X76500000Y-114437500D03*
%TD*%
D20*
%TO.C,K7*%
X153734100Y-144160000D03*
D21*
X153734100Y-136540000D03*
X153734100Y-126380000D03*
X153734100Y-123840000D03*
%TD*%
D22*
%TO.C,R28*%
X217000000Y-101000000D03*
X217000000Y-103000000D03*
%TD*%
D13*
%TO.C,Q1*%
X35950000Y-112562500D03*
X34050000Y-112562500D03*
X35000000Y-114437500D03*
%TD*%
D10*
%TO.C,R31*%
X256000000Y-103000000D03*
X256000000Y-101000000D03*
%TD*%
D14*
%TO.C,J6*%
X135826400Y-153950000D03*
D15*
X143446400Y-153950000D03*
%TD*%
D20*
%TO.C,K3*%
X73234200Y-144160000D03*
D21*
X73234200Y-136540000D03*
X73234200Y-126380000D03*
X73234200Y-123840000D03*
%TD*%
D19*
%TO.C,F7*%
X164500000Y-123750000D03*
X164500000Y-128350000D03*
X164500000Y-139650000D03*
X164500000Y-144250000D03*
%TD*%
D23*
%TO.C,D23*%
X161975000Y-113500000D03*
X164025000Y-113500000D03*
%TD*%
D13*
%TO.C,Q11*%
X236950000Y-112562500D03*
X235050000Y-112562500D03*
X236000000Y-114437500D03*
%TD*%
D11*
%TO.C,J22*%
X35750000Y-71700000D03*
D12*
X38250000Y-71700000D03*
%TD*%
D22*
%TO.C,R8*%
X76500000Y-101000000D03*
X76500000Y-103000000D03*
%TD*%
D23*
%TO.C,D20*%
X182975000Y-113500000D03*
X185025000Y-113500000D03*
%TD*%
D20*
%TO.C,K12*%
X254699500Y-144160000D03*
D21*
X254699500Y-136540000D03*
X254699500Y-126380000D03*
X254699500Y-123840000D03*
%TD*%
D18*
%TO.C,H2*%
X275500000Y-153000000D03*
%TD*%
D13*
%TO.C,Q7*%
X156450000Y-112562500D03*
X154550000Y-112562500D03*
X155500000Y-114437500D03*
%TD*%
D23*
%TO.C,D9*%
X102975000Y-113500000D03*
X105025000Y-113500000D03*
%TD*%
D13*
%TO.C,Q8*%
X177450000Y-112562500D03*
X175550000Y-112562500D03*
X176500000Y-114437500D03*
%TD*%
D10*
%TO.C,R22*%
X224000000Y-103000000D03*
X224000000Y-101000000D03*
%TD*%
D20*
%TO.C,K5*%
X113234200Y-144160000D03*
D21*
X113234200Y-136540000D03*
X113234200Y-126380000D03*
X113234200Y-123840000D03*
%TD*%
D19*
%TO.C,F9*%
X204500000Y-123750000D03*
X204500000Y-128350000D03*
X204500000Y-139650000D03*
X204500000Y-144250000D03*
%TD*%
D13*
%TO.C,Q5*%
X116950000Y-112562500D03*
X115050000Y-112562500D03*
X116000000Y-114437500D03*
%TD*%
D19*
%TO.C,F2*%
X63500000Y-123750000D03*
X63500000Y-128350000D03*
X63500000Y-139650000D03*
X63500000Y-144250000D03*
%TD*%
D22*
%TO.C,R9*%
X48500000Y-112500000D03*
X48500000Y-114500000D03*
%TD*%
D24*
%TO.C,C1*%
X245462500Y-79500000D03*
X247537500Y-79500000D03*
%TD*%
D20*
%TO.C,K10*%
X214734100Y-144160000D03*
D21*
X214734100Y-136540000D03*
X214734100Y-126380000D03*
X214734100Y-123840000D03*
%TD*%
D22*
%TO.C,R29*%
X155000000Y-101000000D03*
X155000000Y-103000000D03*
%TD*%
D25*
%TO.C,U1*%
X251850000Y-74700000D03*
X251850000Y-77000000D03*
D26*
X258150000Y-77000000D03*
D25*
X251850000Y-79300000D03*
%TD*%
D16*
%TO.C,J28*%
X34500000Y-80500000D03*
D17*
X37040000Y-80500000D03*
X39580000Y-80500000D03*
X42120000Y-80500000D03*
%TD*%
D10*
%TO.C,R24*%
X243000000Y-103000000D03*
X243000000Y-101000000D03*
%TD*%
D19*
%TO.C,F1*%
X43000000Y-123750000D03*
X43000000Y-128350000D03*
X43000000Y-139650000D03*
X43000000Y-144250000D03*
%TD*%
%TO.C,F3*%
X84000000Y-123750000D03*
X84000000Y-128350000D03*
X84000000Y-139650000D03*
X84000000Y-144250000D03*
%TD*%
D11*
%TO.C,J21*%
X93250000Y-59700000D03*
D12*
X95750000Y-59700000D03*
%TD*%
D11*
%TO.C,J16*%
X35750000Y-59700000D03*
D12*
X38250000Y-59700000D03*
%TD*%
D19*
%TO.C,F8*%
X184500000Y-123750000D03*
X184500000Y-128350000D03*
X184500000Y-139650000D03*
X184500000Y-144250000D03*
%TD*%
D14*
%TO.C,J11*%
X236962700Y-153950000D03*
D15*
X244582700Y-153950000D03*
%TD*%
D22*
%TO.C,R19*%
X149000000Y-112500000D03*
X149000000Y-114500000D03*
%TD*%
D11*
%TO.C,J18*%
X58750000Y-59700000D03*
D12*
X61250000Y-59700000D03*
%TD*%
D22*
%TO.C,R12*%
X95500000Y-101000000D03*
X95500000Y-103000000D03*
%TD*%
D23*
%TO.C,D1*%
X245475000Y-84500000D03*
X247525000Y-84500000D03*
%TD*%
D19*
%TO.C,F5*%
X124000000Y-123750000D03*
X124000000Y-128350000D03*
X124000000Y-139650000D03*
X124000000Y-144250000D03*
%TD*%
D23*
%TO.C,D7*%
X83065900Y-113500000D03*
X85115900Y-113500000D03*
%TD*%
D22*
%TO.C,R37*%
X271000000Y-112500000D03*
X271000000Y-114500000D03*
%TD*%
D23*
%TO.C,D21*%
X201975000Y-113500000D03*
X204025000Y-113500000D03*
%TD*%
D14*
%TO.C,J1*%
X34690000Y-153950000D03*
D15*
X42310000Y-153950000D03*
%TD*%
D14*
%TO.C,J9*%
X196508200Y-153950000D03*
D15*
X204128200Y-153950000D03*
%TD*%
D22*
%TO.C,R10*%
X90000000Y-112500000D03*
X90000000Y-114500000D03*
%TD*%
D27*
%TO.C,J15*%
X252457500Y-66000000D03*
D28*
X252457500Y-60000000D03*
D29*
X247757500Y-63000000D03*
%TD*%
D22*
%TO.C,R18*%
X136000000Y-101000000D03*
X136000000Y-103000000D03*
%TD*%
%TO.C,R5*%
X55000000Y-101000000D03*
X55000000Y-103000000D03*
%TD*%
D20*
%TO.C,K2*%
X52734100Y-144160000D03*
D21*
X52734100Y-136540000D03*
X52734100Y-126380000D03*
X52734100Y-123840000D03*
%TD*%
D10*
%TO.C,R17*%
X143000000Y-103000000D03*
X143000000Y-101000000D03*
%TD*%
D11*
%TO.C,J25*%
X70250000Y-71700000D03*
D12*
X72750000Y-71700000D03*
%TD*%
D20*
%TO.C,K6*%
X133433700Y-144160000D03*
D21*
X133433700Y-136540000D03*
X133433700Y-126380000D03*
X133433700Y-123840000D03*
%TD*%
D30*
%TO.C,R1*%
X251500000Y-84500000D03*
X253500000Y-84500000D03*
%TD*%
D19*
%TO.C,F4*%
X104000000Y-123750000D03*
X104000000Y-128350000D03*
X104000000Y-139650000D03*
X104000000Y-144250000D03*
%TD*%
D20*
%TO.C,K9*%
X193734100Y-144160000D03*
D21*
X193734100Y-136540000D03*
X193734100Y-126380000D03*
X193734100Y-123840000D03*
%TD*%
D22*
%TO.C,R15*%
X116000000Y-101000000D03*
X116000000Y-103000000D03*
%TD*%
%TO.C,R13*%
X109500000Y-112500000D03*
X109500000Y-114500000D03*
%TD*%
D19*
%TO.C,F6*%
X144199600Y-123750000D03*
X144199600Y-128350000D03*
X144199600Y-139650000D03*
X144199600Y-144250000D03*
%TD*%
D31*
%TO.C,U8*%
X221260000Y-57800000D03*
D32*
X218720000Y-57800000D03*
X216180000Y-57800000D03*
X213640000Y-57800000D03*
X211100000Y-57800000D03*
X208560000Y-57800000D03*
X206020000Y-57800000D03*
X203480000Y-57800000D03*
X200940000Y-57800000D03*
X198400000Y-57800000D03*
X195860000Y-57800000D03*
X193320000Y-57800000D03*
X190780000Y-57800000D03*
X188240000Y-57800000D03*
X185700000Y-57800000D03*
X183160000Y-57800000D03*
X180620000Y-57800000D03*
X178080000Y-57800000D03*
X175540000Y-57800000D03*
X221260000Y-83200000D03*
X218720000Y-83200000D03*
X216180000Y-83200000D03*
X213640000Y-83200000D03*
X211100000Y-83200000D03*
X208560000Y-83200000D03*
X206020000Y-83200000D03*
X203480000Y-83200000D03*
X200940000Y-83200000D03*
X198400000Y-83200000D03*
X195860000Y-83200000D03*
X193320000Y-83200000D03*
X190780000Y-83200000D03*
X188240000Y-83200000D03*
X185700000Y-83200000D03*
X183160000Y-83200000D03*
X180620000Y-83200000D03*
X178080000Y-83200000D03*
X175540000Y-83200000D03*
%TD*%
D23*
%TO.C,D11*%
X122975000Y-113500000D03*
X125025000Y-113500000D03*
%TD*%
D19*
%TO.C,F11*%
X245500000Y-123750000D03*
X245500000Y-128350000D03*
X245500000Y-139650000D03*
X245500000Y-144250000D03*
%TD*%
M02*
