%TF.GenerationSoftware,KiCad,Pcbnew,8.0.8-8.0.8-0~ubuntu24.04.1*%
%TF.CreationDate,2025-02-09T16:52:57+07:00*%
%TF.ProjectId,wemos32-12-channel-relays-ssr-rev-2,77656d6f-7333-4322-9d31-322d6368616e,1.0*%
%TF.SameCoordinates,Original*%
%TF.FileFunction,Copper,L1,Top*%
%TF.FilePolarity,Positive*%
%FSLAX46Y46*%
G04 Gerber Fmt 4.6, Leading zero omitted, Abs format (unit mm)*
G04 Created by KiCad (PCBNEW 8.0.8-8.0.8-0~ubuntu24.04.1) date 2025-02-09 16:52:57*
%MOMM*%
%LPD*%
G01*
G04 APERTURE LIST*
G04 Aperture macros list*
%AMRoundRect*
0 Rectangle with rounded corners*
0 $1 Rounding radius*
0 $2 $3 $4 $5 $6 $7 $8 $9 X,Y pos of 4 corners*
0 Add a 4 corners polygon primitive as box body*
4,1,4,$2,$3,$4,$5,$6,$7,$8,$9,$2,$3,0*
0 Add four circle primitives for the rounded corners*
1,1,$1+$1,$2,$3*
1,1,$1+$1,$4,$5*
1,1,$1+$1,$6,$7*
1,1,$1+$1,$8,$9*
0 Add four rect primitives between the rounded corners*
20,1,$1+$1,$2,$3,$4,$5,0*
20,1,$1+$1,$4,$5,$6,$7,0*
20,1,$1+$1,$6,$7,$8,$9,0*
20,1,$1+$1,$8,$9,$2,$3,0*%
G04 Aperture macros list end*
%TA.AperFunction,SMDPad,CuDef*%
%ADD10RoundRect,0.250000X0.450000X-0.350000X0.450000X0.350000X-0.450000X0.350000X-0.450000X-0.350000X0*%
%TD*%
%TA.AperFunction,ComponentPad*%
%ADD11RoundRect,0.250000X-0.600000X-0.750000X0.600000X-0.750000X0.600000X0.750000X-0.600000X0.750000X0*%
%TD*%
%TA.AperFunction,ComponentPad*%
%ADD12O,1.700000X2.000000*%
%TD*%
%TA.AperFunction,SMDPad,CuDef*%
%ADD13RoundRect,0.150000X-0.150000X0.587500X-0.150000X-0.587500X0.150000X-0.587500X0.150000X0.587500X0*%
%TD*%
%TA.AperFunction,ComponentPad*%
%ADD14R,2.540000X2.540000*%
%TD*%
%TA.AperFunction,ComponentPad*%
%ADD15C,2.540000*%
%TD*%
%TA.AperFunction,ComponentPad*%
%ADD16R,1.700000X1.700000*%
%TD*%
%TA.AperFunction,ComponentPad*%
%ADD17O,1.700000X1.700000*%
%TD*%
%TA.AperFunction,ComponentPad*%
%ADD18C,5.600000*%
%TD*%
%TA.AperFunction,ComponentPad*%
%ADD19C,2.300000*%
%TD*%
%TA.AperFunction,ComponentPad*%
%ADD20R,1.508000X1.508000*%
%TD*%
%TA.AperFunction,ComponentPad*%
%ADD21C,1.508000*%
%TD*%
%TA.AperFunction,SMDPad,CuDef*%
%ADD22RoundRect,0.250000X-0.450000X0.350000X-0.450000X-0.350000X0.450000X-0.350000X0.450000X0.350000X0*%
%TD*%
%TA.AperFunction,SMDPad,CuDef*%
%ADD23RoundRect,0.250000X-0.325000X-0.450000X0.325000X-0.450000X0.325000X0.450000X-0.325000X0.450000X0*%
%TD*%
%TA.AperFunction,SMDPad,CuDef*%
%ADD24RoundRect,0.250000X-0.337500X-0.475000X0.337500X-0.475000X0.337500X0.475000X-0.337500X0.475000X0*%
%TD*%
%TA.AperFunction,SMDPad,CuDef*%
%ADD25R,2.000000X1.500000*%
%TD*%
%TA.AperFunction,SMDPad,CuDef*%
%ADD26R,2.000000X3.800000*%
%TD*%
%TA.AperFunction,ComponentPad*%
%ADD27R,3.500000X3.500000*%
%TD*%
%TA.AperFunction,ComponentPad*%
%ADD28RoundRect,0.750000X-1.000000X0.750000X-1.000000X-0.750000X1.000000X-0.750000X1.000000X0.750000X0*%
%TD*%
%TA.AperFunction,ComponentPad*%
%ADD29RoundRect,0.875000X-0.875000X0.875000X-0.875000X-0.875000X0.875000X-0.875000X0.875000X0.875000X0*%
%TD*%
%TA.AperFunction,SMDPad,CuDef*%
%ADD30RoundRect,0.250000X-0.350000X-0.450000X0.350000X-0.450000X0.350000X0.450000X-0.350000X0.450000X0*%
%TD*%
%TA.AperFunction,ComponentPad*%
%ADD31R,1.560000X1.560000*%
%TD*%
%TA.AperFunction,ComponentPad*%
%ADD32C,1.560000*%
%TD*%
%TA.AperFunction,ViaPad*%
%ADD33C,1.000000*%
%TD*%
%TA.AperFunction,Conductor*%
%ADD34C,0.254000*%
%TD*%
G04 APERTURE END LIST*
D10*
%TO.P,R14,1*%
%TO.N,Net-(Q5-B)*%
X123000000Y-103000000D03*
%TO.P,R14,2*%
%TO.N,/IO_15*%
X123000000Y-101000000D03*
%TD*%
D11*
%TO.P,J19,1,Pin_1*%
%TO.N,GND*%
X70250000Y-59700000D03*
D12*
%TO.P,J19,2,Pin_2*%
%TO.N,Net-(D9-K)*%
X72750000Y-59700000D03*
%TD*%
D13*
%TO.P,Q10,1,B*%
%TO.N,Net-(Q10-B)*%
X217450000Y-112562500D03*
%TO.P,Q10,2,E*%
%TO.N,GND*%
X215550000Y-112562500D03*
%TO.P,Q10,3,C*%
%TO.N,Net-(D22-K)*%
X216500000Y-114437500D03*
%TD*%
%TO.P,Q4,1,B*%
%TO.N,Net-(Q4-B)*%
X96950000Y-112562500D03*
%TO.P,Q4,2,E*%
%TO.N,GND*%
X95050000Y-112562500D03*
%TO.P,Q4,3,C*%
%TO.N,Net-(D9-K)*%
X96000000Y-114437500D03*
%TD*%
D14*
%TO.P,J3,1,Pin_1*%
%TO.N,Net-(J3-Pin_1)*%
X75144500Y-153950000D03*
D15*
%TO.P,J3,2,Pin_2*%
%TO.N,Net-(J3-Pin_2)*%
X82764500Y-153950000D03*
%TD*%
D16*
%TO.P,J14,1,Pin_1*%
%TO.N,/MISO*%
X133500000Y-72350000D03*
D17*
%TO.P,J14,2,Pin_2*%
%TO.N,unconnected-(J14-Pin_2-Pad2)*%
X133500000Y-69810000D03*
%TO.P,J14,3,Pin_3*%
%TO.N,unconnected-(J14-Pin_3-Pad3)*%
X133500000Y-67270000D03*
%TO.P,J14,4,Pin_4*%
%TO.N,+3.3V*%
X133500000Y-64730000D03*
%TO.P,J14,5,Pin_5*%
X133500000Y-62190000D03*
%TO.P,J14,6,Pin_6*%
%TO.N,GND*%
X133500000Y-59650000D03*
%TD*%
D11*
%TO.P,J26,1,Pin_1*%
%TO.N,GND*%
X81750000Y-71700000D03*
D12*
%TO.P,J26,2,Pin_2*%
%TO.N,Net-(D24-K)*%
X84250000Y-71700000D03*
%TD*%
D18*
%TO.P,H1,1*%
%TO.N,N/C*%
X275000000Y-59000000D03*
%TD*%
D11*
%TO.P,J20,1,Pin_1*%
%TO.N,GND*%
X81750000Y-59700000D03*
D12*
%TO.P,J20,2,Pin_2*%
%TO.N,Net-(D11-K)*%
X84250000Y-59700000D03*
%TD*%
D14*
%TO.P,J5,1,Pin_1*%
%TO.N,Net-(J5-Pin_1)*%
X115599100Y-153950000D03*
D15*
%TO.P,J5,2,Pin_2*%
%TO.N,Net-(J5-Pin_2)*%
X123219100Y-153950000D03*
%TD*%
D19*
%TO.P,F12,1*%
%TO.N,Net-(F12-Pad1)*%
X265465400Y-123750000D03*
X265465400Y-128350000D03*
%TO.P,F12,2*%
%TO.N,Net-(J12-Pin_2)*%
X265465400Y-139650000D03*
X265465400Y-144250000D03*
%TD*%
D20*
%TO.P,K1,1*%
%TO.N,Net-(F1-Pad1)*%
X32234100Y-144160000D03*
D21*
%TO.P,K1,2*%
%TO.N,Net-(J1-Pin_1)*%
X32234100Y-136540000D03*
%TO.P,K1,3*%
%TO.N,+5V*%
X32234100Y-126380000D03*
%TO.P,K1,4*%
%TO.N,Net-(D3-K)*%
X32234100Y-123840000D03*
%TD*%
D22*
%TO.P,R32,1*%
%TO.N,Net-(D20-A)*%
X189500000Y-112500000D03*
%TO.P,R32,2*%
%TO.N,+5V*%
X189500000Y-114500000D03*
%TD*%
D14*
%TO.P,J2,1,Pin_1*%
%TO.N,Net-(J2-Pin_1)*%
X54917300Y-153950000D03*
D15*
%TO.P,J2,2,Pin_2*%
%TO.N,Net-(J2-Pin_2)*%
X62537300Y-153950000D03*
%TD*%
D22*
%TO.P,R33,1*%
%TO.N,Net-(D21-A)*%
X209000000Y-112500000D03*
%TO.P,R33,2*%
%TO.N,+5V*%
X209000000Y-114500000D03*
%TD*%
%TO.P,R36,1*%
%TO.N,Net-(D24-A)*%
X249500000Y-112500000D03*
%TO.P,R36,2*%
%TO.N,+5V*%
X249500000Y-114500000D03*
%TD*%
D13*
%TO.P,Q2,1,B*%
%TO.N,Net-(Q2-B)*%
X56450000Y-112562500D03*
%TO.P,Q2,2,E*%
%TO.N,GND*%
X54550000Y-112562500D03*
%TO.P,Q2,3,C*%
%TO.N,Net-(D5-K)*%
X55500000Y-114437500D03*
%TD*%
D11*
%TO.P,J23,1,Pin_1*%
%TO.N,GND*%
X47250000Y-71700000D03*
D12*
%TO.P,J23,2,Pin_2*%
%TO.N,Net-(D20-K)*%
X49750000Y-71700000D03*
%TD*%
D11*
%TO.P,J24,1,Pin_1*%
%TO.N,GND*%
X58750000Y-71700000D03*
D12*
%TO.P,J24,2,Pin_2*%
%TO.N,Net-(D21-K)*%
X61250000Y-71700000D03*
%TD*%
D16*
%TO.P,J13,1,Pin_1*%
%TO.N,GND*%
X112500000Y-59650000D03*
D17*
%TO.P,J13,2,Pin_2*%
X112500000Y-62190000D03*
%TO.P,J13,3,Pin_3*%
%TO.N,/MOSI*%
X112500000Y-64730000D03*
%TO.P,J13,4,Pin_4*%
%TO.N,/SCLK*%
X112500000Y-67270000D03*
%TO.P,J13,5,Pin_5*%
%TO.N,/CS*%
X112500000Y-69810000D03*
%TO.P,J13,6,Pin_6*%
%TO.N,/INT*%
X112500000Y-72350000D03*
%TD*%
D18*
%TO.P,H4,1*%
%TO.N,N/C*%
X22000000Y-153000000D03*
%TD*%
D10*
%TO.P,R7,1*%
%TO.N,Net-(Q3-B)*%
X84000000Y-103000000D03*
%TO.P,R7,2*%
%TO.N,/IO_17*%
X84000000Y-101000000D03*
%TD*%
D22*
%TO.P,R6,1*%
%TO.N,Net-(D5-A)*%
X70000000Y-112500000D03*
%TO.P,R6,2*%
%TO.N,+5V*%
X70000000Y-114500000D03*
%TD*%
D14*
%TO.P,J8,1,Pin_1*%
%TO.N,Net-(J8-Pin_1)*%
X176280900Y-153950000D03*
D15*
%TO.P,J8,2,Pin_2*%
%TO.N,Net-(J8-Pin_2)*%
X183900900Y-153950000D03*
%TD*%
D11*
%TO.P,J27,1,Pin_1*%
%TO.N,GND*%
X93250000Y-71700000D03*
D12*
%TO.P,J27,2,Pin_2*%
%TO.N,Net-(D25-K)*%
X95750000Y-71700000D03*
%TD*%
D23*
%TO.P,D5,1,K*%
%TO.N,Net-(D5-K)*%
X62475000Y-113500000D03*
%TO.P,D5,2,A*%
%TO.N,Net-(D5-A)*%
X64525000Y-113500000D03*
%TD*%
D14*
%TO.P,J12,1,Pin_1*%
%TO.N,Net-(J12-Pin_1)*%
X257190000Y-153950000D03*
D15*
%TO.P,J12,2,Pin_2*%
%TO.N,Net-(J12-Pin_2)*%
X264810000Y-153950000D03*
%TD*%
D13*
%TO.P,Q12,1,B*%
%TO.N,Net-(Q12-B)*%
X256950000Y-112562500D03*
%TO.P,Q12,2,E*%
%TO.N,GND*%
X255050000Y-112562500D03*
%TO.P,Q12,3,C*%
%TO.N,Net-(D25-K)*%
X256000000Y-114437500D03*
%TD*%
D10*
%TO.P,R2,1*%
%TO.N,Net-(Q1-B)*%
X43000000Y-103000000D03*
%TO.P,R2,2*%
%TO.N,/IO_2*%
X43000000Y-101000000D03*
%TD*%
D22*
%TO.P,R27,1*%
%TO.N,Net-(Q9-B)*%
X196000000Y-101000000D03*
%TO.P,R27,2*%
%TO.N,GND*%
X196000000Y-103000000D03*
%TD*%
D14*
%TO.P,J4,1,Pin_1*%
%TO.N,Net-(J4-Pin_1)*%
X95371800Y-153950000D03*
D15*
%TO.P,J4,2,Pin_2*%
%TO.N,Net-(J4-Pin_2)*%
X102991800Y-153950000D03*
%TD*%
D10*
%TO.P,R20,1*%
%TO.N,Net-(Q8-B)*%
X183000000Y-103000000D03*
%TO.P,R20,2*%
%TO.N,/IO_25*%
X183000000Y-101000000D03*
%TD*%
D20*
%TO.P,K4,1*%
%TO.N,Net-(F4-Pad1)*%
X93234100Y-144160000D03*
D21*
%TO.P,K4,2*%
%TO.N,Net-(J4-Pin_1)*%
X93234100Y-136540000D03*
%TO.P,K4,3*%
%TO.N,+5V*%
X93234100Y-126380000D03*
%TO.P,K4,4*%
%TO.N,Net-(D9-K)*%
X93234100Y-123840000D03*
%TD*%
D22*
%TO.P,R35,1*%
%TO.N,Net-(D23-A)*%
X169000000Y-112500000D03*
%TO.P,R35,2*%
%TO.N,+5V*%
X169000000Y-114500000D03*
%TD*%
D19*
%TO.P,F10,1*%
%TO.N,Net-(F10-Pad1)*%
X225500000Y-123750000D03*
X225500000Y-128350000D03*
%TO.P,F10,2*%
%TO.N,Net-(J10-Pin_2)*%
X225500000Y-139650000D03*
X225500000Y-144250000D03*
%TD*%
D10*
%TO.P,R4,1*%
%TO.N,Net-(Q2-B)*%
X63000000Y-103000000D03*
%TO.P,R4,2*%
%TO.N,/IO_16*%
X63000000Y-101000000D03*
%TD*%
D14*
%TO.P,J7,1,Pin_1*%
%TO.N,Net-(J7-Pin_1)*%
X156053600Y-153950000D03*
D15*
%TO.P,J7,2,Pin_2*%
%TO.N,Net-(J7-Pin_2)*%
X163673600Y-153950000D03*
%TD*%
D11*
%TO.P,J17,1,Pin_1*%
%TO.N,GND*%
X47250000Y-59700000D03*
D12*
%TO.P,J17,2,Pin_2*%
%TO.N,Net-(D5-K)*%
X49750000Y-59700000D03*
%TD*%
D10*
%TO.P,R21,1*%
%TO.N,Net-(Q9-B)*%
X203000000Y-103000000D03*
%TO.P,R21,2*%
%TO.N,/IO_26*%
X203000000Y-101000000D03*
%TD*%
D23*
%TO.P,D3,1,K*%
%TO.N,Net-(D3-K)*%
X41975000Y-113500000D03*
%TO.P,D3,2,A*%
%TO.N,Net-(D3-A)*%
X44025000Y-113500000D03*
%TD*%
D10*
%TO.P,R3,1*%
%TO.N,Net-(Q1-B)*%
X35000000Y-103000000D03*
%TO.P,R3,2*%
%TO.N,GND*%
X35000000Y-101000000D03*
%TD*%
D23*
%TO.P,D25,1,K*%
%TO.N,Net-(D25-K)*%
X263975000Y-113500000D03*
%TO.P,D25,2,A*%
%TO.N,Net-(D25-A)*%
X266025000Y-113500000D03*
%TD*%
D13*
%TO.P,Q9,1,B*%
%TO.N,Net-(Q9-B)*%
X196950000Y-112562500D03*
%TO.P,Q9,2,E*%
%TO.N,GND*%
X195050000Y-112562500D03*
%TO.P,Q9,3,C*%
%TO.N,Net-(D21-K)*%
X196000000Y-114437500D03*
%TD*%
D18*
%TO.P,H3,1*%
%TO.N,N/C*%
X22000000Y-60500000D03*
%TD*%
D23*
%TO.P,D13,1,K*%
%TO.N,Net-(D13-K)*%
X142475000Y-113500000D03*
%TO.P,D13,2,A*%
%TO.N,Net-(D13-A)*%
X144525000Y-113500000D03*
%TD*%
D10*
%TO.P,R11,1*%
%TO.N,Net-(Q4-B)*%
X103000000Y-103000000D03*
%TO.P,R11,2*%
%TO.N,/IO_13*%
X103000000Y-101000000D03*
%TD*%
D20*
%TO.P,K8,1*%
%TO.N,Net-(F8-Pad1)*%
X173734200Y-144160000D03*
D21*
%TO.P,K8,2*%
%TO.N,Net-(J8-Pin_1)*%
X173734200Y-136540000D03*
%TO.P,K8,3*%
%TO.N,+5V*%
X173734200Y-126380000D03*
%TO.P,K8,4*%
%TO.N,Net-(D20-K)*%
X173734200Y-123840000D03*
%TD*%
D22*
%TO.P,R34,1*%
%TO.N,Net-(D22-A)*%
X230000000Y-112500000D03*
%TO.P,R34,2*%
%TO.N,+5V*%
X230000000Y-114500000D03*
%TD*%
%TO.P,R26,1*%
%TO.N,Net-(Q8-B)*%
X176000000Y-101000000D03*
%TO.P,R26,2*%
%TO.N,GND*%
X176000000Y-103000000D03*
%TD*%
D10*
%TO.P,R25,1*%
%TO.N,Net-(Q12-B)*%
X264500000Y-103000000D03*
%TO.P,R25,2*%
%TO.N,/IO_27*%
X264500000Y-101000000D03*
%TD*%
D24*
%TO.P,C6,1*%
%TO.N,+3.3V*%
X245462500Y-74500000D03*
%TO.P,C6,2*%
%TO.N,GND*%
X247537500Y-74500000D03*
%TD*%
D22*
%TO.P,R30,1*%
%TO.N,Net-(Q11-B)*%
X236000000Y-101000000D03*
%TO.P,R30,2*%
%TO.N,GND*%
X236000000Y-103000000D03*
%TD*%
D10*
%TO.P,R23,1*%
%TO.N,Net-(Q7-B)*%
X162500000Y-103000000D03*
%TO.P,R23,2*%
%TO.N,/IO_12*%
X162500000Y-101000000D03*
%TD*%
D14*
%TO.P,J10,1,Pin_1*%
%TO.N,Net-(J10-Pin_1)*%
X216735400Y-153950000D03*
D15*
%TO.P,J10,2,Pin_2*%
%TO.N,Net-(J10-Pin_2)*%
X224355400Y-153950000D03*
%TD*%
D13*
%TO.P,Q6,1,B*%
%TO.N,Net-(Q6-B)*%
X136950000Y-112562500D03*
%TO.P,Q6,2,E*%
%TO.N,GND*%
X135050000Y-112562500D03*
%TO.P,Q6,3,C*%
%TO.N,Net-(D13-K)*%
X136000000Y-114437500D03*
%TD*%
D23*
%TO.P,D24,1,K*%
%TO.N,Net-(D24-K)*%
X242975000Y-113500000D03*
%TO.P,D24,2,A*%
%TO.N,Net-(D24-A)*%
X245025000Y-113500000D03*
%TD*%
D22*
%TO.P,R16,1*%
%TO.N,Net-(D11-A)*%
X129000000Y-112500000D03*
%TO.P,R16,2*%
%TO.N,+5V*%
X129000000Y-114500000D03*
%TD*%
D20*
%TO.P,K11,1*%
%TO.N,Net-(F11-Pad1)*%
X234734200Y-144160000D03*
D21*
%TO.P,K11,2*%
%TO.N,Net-(J11-Pin_1)*%
X234734200Y-136540000D03*
%TO.P,K11,3*%
%TO.N,+5V*%
X234734200Y-126380000D03*
%TO.P,K11,4*%
%TO.N,Net-(D24-K)*%
X234734200Y-123840000D03*
%TD*%
D23*
%TO.P,D22,1,K*%
%TO.N,Net-(D22-K)*%
X223475000Y-113500000D03*
%TO.P,D22,2,A*%
%TO.N,Net-(D22-A)*%
X225525000Y-113500000D03*
%TD*%
D13*
%TO.P,Q3,1,B*%
%TO.N,Net-(Q3-B)*%
X77450000Y-112562500D03*
%TO.P,Q3,2,E*%
%TO.N,GND*%
X75550000Y-112562500D03*
%TO.P,Q3,3,C*%
%TO.N,Net-(D7-K)*%
X76500000Y-114437500D03*
%TD*%
D20*
%TO.P,K7,1*%
%TO.N,Net-(F7-Pad1)*%
X153734100Y-144160000D03*
D21*
%TO.P,K7,2*%
%TO.N,Net-(J7-Pin_1)*%
X153734100Y-136540000D03*
%TO.P,K7,3*%
%TO.N,+5V*%
X153734100Y-126380000D03*
%TO.P,K7,4*%
%TO.N,Net-(D23-K)*%
X153734100Y-123840000D03*
%TD*%
D22*
%TO.P,R28,1*%
%TO.N,Net-(Q10-B)*%
X217000000Y-101000000D03*
%TO.P,R28,2*%
%TO.N,GND*%
X217000000Y-103000000D03*
%TD*%
D13*
%TO.P,Q1,1,B*%
%TO.N,Net-(Q1-B)*%
X35950000Y-112562500D03*
%TO.P,Q1,2,E*%
%TO.N,GND*%
X34050000Y-112562500D03*
%TO.P,Q1,3,C*%
%TO.N,Net-(D3-K)*%
X35000000Y-114437500D03*
%TD*%
D10*
%TO.P,R31,1*%
%TO.N,Net-(Q12-B)*%
X256000000Y-103000000D03*
%TO.P,R31,2*%
%TO.N,GND*%
X256000000Y-101000000D03*
%TD*%
D14*
%TO.P,J6,1,Pin_1*%
%TO.N,Net-(J6-Pin_1)*%
X135826400Y-153950000D03*
D15*
%TO.P,J6,2,Pin_2*%
%TO.N,Net-(J6-Pin_2)*%
X143446400Y-153950000D03*
%TD*%
D20*
%TO.P,K3,1*%
%TO.N,Net-(F3-Pad1)*%
X73234200Y-144160000D03*
D21*
%TO.P,K3,2*%
%TO.N,Net-(J3-Pin_1)*%
X73234200Y-136540000D03*
%TO.P,K3,3*%
%TO.N,+5V*%
X73234200Y-126380000D03*
%TO.P,K3,4*%
%TO.N,Net-(D7-K)*%
X73234200Y-123840000D03*
%TD*%
D19*
%TO.P,F7,1*%
%TO.N,Net-(F7-Pad1)*%
X164500000Y-123750000D03*
X164500000Y-128350000D03*
%TO.P,F7,2*%
%TO.N,Net-(J7-Pin_2)*%
X164500000Y-139650000D03*
X164500000Y-144250000D03*
%TD*%
D23*
%TO.P,D23,1,K*%
%TO.N,Net-(D23-K)*%
X161975000Y-113500000D03*
%TO.P,D23,2,A*%
%TO.N,Net-(D23-A)*%
X164025000Y-113500000D03*
%TD*%
D13*
%TO.P,Q11,1,B*%
%TO.N,Net-(Q11-B)*%
X236950000Y-112562500D03*
%TO.P,Q11,2,E*%
%TO.N,GND*%
X235050000Y-112562500D03*
%TO.P,Q11,3,C*%
%TO.N,Net-(D24-K)*%
X236000000Y-114437500D03*
%TD*%
D11*
%TO.P,J22,1,Pin_1*%
%TO.N,GND*%
X35750000Y-71700000D03*
D12*
%TO.P,J22,2,Pin_2*%
%TO.N,Net-(D23-K)*%
X38250000Y-71700000D03*
%TD*%
D22*
%TO.P,R8,1*%
%TO.N,Net-(Q3-B)*%
X76500000Y-101000000D03*
%TO.P,R8,2*%
%TO.N,GND*%
X76500000Y-103000000D03*
%TD*%
D23*
%TO.P,D20,1,K*%
%TO.N,Net-(D20-K)*%
X182975000Y-113500000D03*
%TO.P,D20,2,A*%
%TO.N,Net-(D20-A)*%
X185025000Y-113500000D03*
%TD*%
D20*
%TO.P,K12,1*%
%TO.N,Net-(F12-Pad1)*%
X254699500Y-144160000D03*
D21*
%TO.P,K12,2*%
%TO.N,Net-(J12-Pin_1)*%
X254699500Y-136540000D03*
%TO.P,K12,3*%
%TO.N,+5V*%
X254699500Y-126380000D03*
%TO.P,K12,4*%
%TO.N,Net-(D25-K)*%
X254699500Y-123840000D03*
%TD*%
D18*
%TO.P,H2,1*%
%TO.N,N/C*%
X275500000Y-153000000D03*
%TD*%
D13*
%TO.P,Q7,1,B*%
%TO.N,Net-(Q7-B)*%
X156450000Y-112562500D03*
%TO.P,Q7,2,E*%
%TO.N,GND*%
X154550000Y-112562500D03*
%TO.P,Q7,3,C*%
%TO.N,Net-(D23-K)*%
X155500000Y-114437500D03*
%TD*%
D23*
%TO.P,D9,1,K*%
%TO.N,Net-(D9-K)*%
X102975000Y-113500000D03*
%TO.P,D9,2,A*%
%TO.N,Net-(D9-A)*%
X105025000Y-113500000D03*
%TD*%
D13*
%TO.P,Q8,1,B*%
%TO.N,Net-(Q8-B)*%
X177450000Y-112562500D03*
%TO.P,Q8,2,E*%
%TO.N,GND*%
X175550000Y-112562500D03*
%TO.P,Q8,3,C*%
%TO.N,Net-(D20-K)*%
X176500000Y-114437500D03*
%TD*%
D10*
%TO.P,R22,1*%
%TO.N,Net-(Q10-B)*%
X224000000Y-103000000D03*
%TO.P,R22,2*%
%TO.N,/IO_33*%
X224000000Y-101000000D03*
%TD*%
D20*
%TO.P,K5,1*%
%TO.N,Net-(F5-Pad1)*%
X113234200Y-144160000D03*
D21*
%TO.P,K5,2*%
%TO.N,Net-(J5-Pin_1)*%
X113234200Y-136540000D03*
%TO.P,K5,3*%
%TO.N,+5V*%
X113234200Y-126380000D03*
%TO.P,K5,4*%
%TO.N,Net-(D11-K)*%
X113234200Y-123840000D03*
%TD*%
D19*
%TO.P,F9,1*%
%TO.N,Net-(F9-Pad1)*%
X204500000Y-123750000D03*
X204500000Y-128350000D03*
%TO.P,F9,2*%
%TO.N,Net-(J9-Pin_2)*%
X204500000Y-139650000D03*
X204500000Y-144250000D03*
%TD*%
D13*
%TO.P,Q5,1,B*%
%TO.N,Net-(Q5-B)*%
X116950000Y-112562500D03*
%TO.P,Q5,2,E*%
%TO.N,GND*%
X115050000Y-112562500D03*
%TO.P,Q5,3,C*%
%TO.N,Net-(D11-K)*%
X116000000Y-114437500D03*
%TD*%
D19*
%TO.P,F2,1*%
%TO.N,Net-(F2-Pad1)*%
X63500000Y-123750000D03*
X63500000Y-128350000D03*
%TO.P,F2,2*%
%TO.N,Net-(J2-Pin_2)*%
X63500000Y-139650000D03*
X63500000Y-144250000D03*
%TD*%
D22*
%TO.P,R9,1*%
%TO.N,Net-(D3-A)*%
X48500000Y-112500000D03*
%TO.P,R9,2*%
%TO.N,+5V*%
X48500000Y-114500000D03*
%TD*%
D24*
%TO.P,C1,1*%
%TO.N,+5V*%
X245462500Y-79500000D03*
%TO.P,C1,2*%
%TO.N,GND*%
X247537500Y-79500000D03*
%TD*%
D20*
%TO.P,K10,1*%
%TO.N,Net-(F10-Pad1)*%
X214734100Y-144160000D03*
D21*
%TO.P,K10,2*%
%TO.N,Net-(J10-Pin_1)*%
X214734100Y-136540000D03*
%TO.P,K10,3*%
%TO.N,+5V*%
X214734100Y-126380000D03*
%TO.P,K10,4*%
%TO.N,Net-(D22-K)*%
X214734100Y-123840000D03*
%TD*%
D22*
%TO.P,R29,1*%
%TO.N,Net-(Q7-B)*%
X155000000Y-101000000D03*
%TO.P,R29,2*%
%TO.N,GND*%
X155000000Y-103000000D03*
%TD*%
D25*
%TO.P,U1,1,GND*%
%TO.N,GND*%
X251850000Y-74700000D03*
%TO.P,U1,2,VO*%
%TO.N,+3.3V*%
X251850000Y-77000000D03*
D26*
X258150000Y-77000000D03*
D25*
%TO.P,U1,3,VI*%
%TO.N,+5V*%
X251850000Y-79300000D03*
%TD*%
D16*
%TO.P,J28,1,Pin_1*%
%TO.N,GND*%
X34500000Y-80500000D03*
D17*
%TO.P,J28,2,Pin_2*%
%TO.N,+3.3V*%
X37040000Y-80500000D03*
%TO.P,J28,3,Pin_3*%
%TO.N,/SCL*%
X39580000Y-80500000D03*
%TO.P,J28,4,Pin_4*%
%TO.N,/SDA*%
X42120000Y-80500000D03*
%TD*%
D10*
%TO.P,R24,1*%
%TO.N,Net-(Q11-B)*%
X243000000Y-103000000D03*
%TO.P,R24,2*%
%TO.N,/IO_32*%
X243000000Y-101000000D03*
%TD*%
D19*
%TO.P,F1,1*%
%TO.N,Net-(F1-Pad1)*%
X43000000Y-123750000D03*
X43000000Y-128350000D03*
%TO.P,F1,2*%
%TO.N,Net-(J1-Pin_2)*%
X43000000Y-139650000D03*
X43000000Y-144250000D03*
%TD*%
%TO.P,F3,1*%
%TO.N,Net-(F3-Pad1)*%
X84000000Y-123750000D03*
X84000000Y-128350000D03*
%TO.P,F3,2*%
%TO.N,Net-(J3-Pin_2)*%
X84000000Y-139650000D03*
X84000000Y-144250000D03*
%TD*%
D11*
%TO.P,J21,1,Pin_1*%
%TO.N,GND*%
X93250000Y-59700000D03*
D12*
%TO.P,J21,2,Pin_2*%
%TO.N,Net-(D13-K)*%
X95750000Y-59700000D03*
%TD*%
D11*
%TO.P,J16,1,Pin_1*%
%TO.N,GND*%
X35750000Y-59700000D03*
D12*
%TO.P,J16,2,Pin_2*%
%TO.N,Net-(D3-K)*%
X38250000Y-59700000D03*
%TD*%
D19*
%TO.P,F8,1*%
%TO.N,Net-(F8-Pad1)*%
X184500000Y-123750000D03*
X184500000Y-128350000D03*
%TO.P,F8,2*%
%TO.N,Net-(J8-Pin_2)*%
X184500000Y-139650000D03*
X184500000Y-144250000D03*
%TD*%
D14*
%TO.P,J11,1,Pin_1*%
%TO.N,Net-(J11-Pin_1)*%
X236962700Y-153950000D03*
D15*
%TO.P,J11,2,Pin_2*%
%TO.N,Net-(J11-Pin_2)*%
X244582700Y-153950000D03*
%TD*%
D22*
%TO.P,R19,1*%
%TO.N,Net-(D13-A)*%
X149000000Y-112500000D03*
%TO.P,R19,2*%
%TO.N,+5V*%
X149000000Y-114500000D03*
%TD*%
D11*
%TO.P,J18,1,Pin_1*%
%TO.N,GND*%
X58750000Y-59700000D03*
D12*
%TO.P,J18,2,Pin_2*%
%TO.N,Net-(D7-K)*%
X61250000Y-59700000D03*
%TD*%
D22*
%TO.P,R12,1*%
%TO.N,Net-(Q4-B)*%
X95500000Y-101000000D03*
%TO.P,R12,2*%
%TO.N,GND*%
X95500000Y-103000000D03*
%TD*%
D23*
%TO.P,D1,1,K*%
%TO.N,GND*%
X245475000Y-84500000D03*
%TO.P,D1,2,A*%
%TO.N,Net-(D1-A)*%
X247525000Y-84500000D03*
%TD*%
D19*
%TO.P,F5,1*%
%TO.N,Net-(F5-Pad1)*%
X124000000Y-123750000D03*
X124000000Y-128350000D03*
%TO.P,F5,2*%
%TO.N,Net-(J5-Pin_2)*%
X124000000Y-139650000D03*
X124000000Y-144250000D03*
%TD*%
D23*
%TO.P,D7,1,K*%
%TO.N,Net-(D7-K)*%
X83065900Y-113500000D03*
%TO.P,D7,2,A*%
%TO.N,Net-(D7-A)*%
X85115900Y-113500000D03*
%TD*%
D22*
%TO.P,R37,1*%
%TO.N,Net-(D25-A)*%
X271000000Y-112500000D03*
%TO.P,R37,2*%
%TO.N,+5V*%
X271000000Y-114500000D03*
%TD*%
D23*
%TO.P,D21,1,K*%
%TO.N,Net-(D21-K)*%
X201975000Y-113500000D03*
%TO.P,D21,2,A*%
%TO.N,Net-(D21-A)*%
X204025000Y-113500000D03*
%TD*%
D14*
%TO.P,J1,1,Pin_1*%
%TO.N,Net-(J1-Pin_1)*%
X34690000Y-153950000D03*
D15*
%TO.P,J1,2,Pin_2*%
%TO.N,Net-(J1-Pin_2)*%
X42310000Y-153950000D03*
%TD*%
D14*
%TO.P,J9,1,Pin_1*%
%TO.N,Net-(J9-Pin_1)*%
X196508200Y-153950000D03*
D15*
%TO.P,J9,2,Pin_2*%
%TO.N,Net-(J9-Pin_2)*%
X204128200Y-153950000D03*
%TD*%
D22*
%TO.P,R10,1*%
%TO.N,Net-(D7-A)*%
X90000000Y-112500000D03*
%TO.P,R10,2*%
%TO.N,+5V*%
X90000000Y-114500000D03*
%TD*%
D27*
%TO.P,J15,1*%
%TO.N,+5V*%
X252457500Y-66000000D03*
D28*
%TO.P,J15,2*%
%TO.N,GND*%
X252457500Y-60000000D03*
D29*
%TO.P,J15,3*%
%TO.N,N/C*%
X247757500Y-63000000D03*
%TD*%
D22*
%TO.P,R18,1*%
%TO.N,Net-(Q6-B)*%
X136000000Y-101000000D03*
%TO.P,R18,2*%
%TO.N,GND*%
X136000000Y-103000000D03*
%TD*%
%TO.P,R5,1*%
%TO.N,Net-(Q2-B)*%
X55000000Y-101000000D03*
%TO.P,R5,2*%
%TO.N,GND*%
X55000000Y-103000000D03*
%TD*%
D20*
%TO.P,K2,1*%
%TO.N,Net-(F2-Pad1)*%
X52734100Y-144160000D03*
D21*
%TO.P,K2,2*%
%TO.N,Net-(J2-Pin_1)*%
X52734100Y-136540000D03*
%TO.P,K2,3*%
%TO.N,+5V*%
X52734100Y-126380000D03*
%TO.P,K2,4*%
%TO.N,Net-(D5-K)*%
X52734100Y-123840000D03*
%TD*%
D10*
%TO.P,R17,1*%
%TO.N,Net-(Q6-B)*%
X143000000Y-103000000D03*
%TO.P,R17,2*%
%TO.N,/IO_14*%
X143000000Y-101000000D03*
%TD*%
D11*
%TO.P,J25,1,Pin_1*%
%TO.N,GND*%
X70250000Y-71700000D03*
D12*
%TO.P,J25,2,Pin_2*%
%TO.N,Net-(D22-K)*%
X72750000Y-71700000D03*
%TD*%
D20*
%TO.P,K6,1*%
%TO.N,Net-(F6-Pad1)*%
X133433700Y-144160000D03*
D21*
%TO.P,K6,2*%
%TO.N,Net-(J6-Pin_1)*%
X133433700Y-136540000D03*
%TO.P,K6,3*%
%TO.N,+5V*%
X133433700Y-126380000D03*
%TO.P,K6,4*%
%TO.N,Net-(D13-K)*%
X133433700Y-123840000D03*
%TD*%
D30*
%TO.P,R1,1*%
%TO.N,+5V*%
X251500000Y-84500000D03*
%TO.P,R1,2*%
%TO.N,Net-(D1-A)*%
X253500000Y-84500000D03*
%TD*%
D19*
%TO.P,F4,1*%
%TO.N,Net-(F4-Pad1)*%
X104000000Y-123750000D03*
X104000000Y-128350000D03*
%TO.P,F4,2*%
%TO.N,Net-(J4-Pin_2)*%
X104000000Y-139650000D03*
X104000000Y-144250000D03*
%TD*%
D20*
%TO.P,K9,1*%
%TO.N,Net-(F9-Pad1)*%
X193734100Y-144160000D03*
D21*
%TO.P,K9,2*%
%TO.N,Net-(J9-Pin_1)*%
X193734100Y-136540000D03*
%TO.P,K9,3*%
%TO.N,+5V*%
X193734100Y-126380000D03*
%TO.P,K9,4*%
%TO.N,Net-(D21-K)*%
X193734100Y-123840000D03*
%TD*%
D22*
%TO.P,R15,1*%
%TO.N,Net-(Q5-B)*%
X116000000Y-101000000D03*
%TO.P,R15,2*%
%TO.N,GND*%
X116000000Y-103000000D03*
%TD*%
%TO.P,R13,1*%
%TO.N,Net-(D9-A)*%
X109500000Y-112500000D03*
%TO.P,R13,2*%
%TO.N,+5V*%
X109500000Y-114500000D03*
%TD*%
D19*
%TO.P,F6,1*%
%TO.N,Net-(F6-Pad1)*%
X144199600Y-123750000D03*
X144199600Y-128350000D03*
%TO.P,F6,2*%
%TO.N,Net-(J6-Pin_2)*%
X144199600Y-139650000D03*
X144199600Y-144250000D03*
%TD*%
D31*
%TO.P,U8,J2-1,3V3*%
%TO.N,unconnected-(U8-3V3-PadJ2-1)*%
X221260000Y-57800000D03*
D32*
%TO.P,U8,J2-2,EN*%
%TO.N,unconnected-(U8-EN-PadJ2-2)*%
X218720000Y-57800000D03*
%TO.P,U8,J2-3,SENSOR_VP*%
%TO.N,unconnected-(U8-SENSOR_VP-PadJ2-3)*%
X216180000Y-57800000D03*
%TO.P,U8,J2-4,SENSOR_VN*%
%TO.N,unconnected-(U8-SENSOR_VN-PadJ2-4)*%
X213640000Y-57800000D03*
%TO.P,U8,J2-5,IO34*%
%TO.N,unconnected-(U8-IO34-PadJ2-5)*%
X211100000Y-57800000D03*
%TO.P,U8,J2-6,IO35*%
%TO.N,unconnected-(U8-IO35-PadJ2-6)*%
X208560000Y-57800000D03*
%TO.P,U8,J2-7,IO32*%
%TO.N,/IO_32*%
X206020000Y-57800000D03*
%TO.P,U8,J2-8,IO33*%
%TO.N,/IO_33*%
X203480000Y-57800000D03*
%TO.P,U8,J2-9,IO25*%
%TO.N,/IO_25*%
X200940000Y-57800000D03*
%TO.P,U8,J2-10,IO26*%
%TO.N,/IO_26*%
X198400000Y-57800000D03*
%TO.P,U8,J2-11,IO27*%
%TO.N,/IO_27*%
X195860000Y-57800000D03*
%TO.P,U8,J2-12,IO14*%
%TO.N,/IO_14*%
X193320000Y-57800000D03*
%TO.P,U8,J2-13,IO12*%
%TO.N,/IO_12*%
X190780000Y-57800000D03*
%TO.P,U8,J2-14,GND1*%
%TO.N,unconnected-(U8-GND1-PadJ2-14)*%
X188240000Y-57800000D03*
%TO.P,U8,J2-15,IO13*%
%TO.N,/IO_13*%
X185700000Y-57800000D03*
%TO.P,U8,J2-16,SD2*%
%TO.N,unconnected-(U8-SD2-PadJ2-16)*%
X183160000Y-57800000D03*
%TO.P,U8,J2-17,SD3*%
%TO.N,unconnected-(U8-SD3-PadJ2-17)*%
X180620000Y-57800000D03*
%TO.P,U8,J2-18,CMD*%
%TO.N,unconnected-(U8-CMD-PadJ2-18)*%
X178080000Y-57800000D03*
%TO.P,U8,J2-19,EXT_5V*%
%TO.N,+5V*%
X175540000Y-57800000D03*
%TO.P,U8,J3-1,GND3*%
%TO.N,GND*%
X221260000Y-83200000D03*
%TO.P,U8,J3-2,IO23*%
%TO.N,/MOSI*%
X218720000Y-83200000D03*
%TO.P,U8,J3-3,IO22*%
%TO.N,/SCL*%
X216180000Y-83200000D03*
%TO.P,U8,J3-4,TXD0*%
%TO.N,unconnected-(U8-TXD0-PadJ3-4)*%
X213640000Y-83200000D03*
%TO.P,U8,J3-5,RXD0*%
%TO.N,unconnected-(U8-RXD0-PadJ3-5)*%
X211100000Y-83200000D03*
%TO.P,U8,J3-6,IO21*%
%TO.N,/SDA*%
X208560000Y-83200000D03*
%TO.P,U8,J3-7,GND2*%
%TO.N,unconnected-(U8-GND2-PadJ3-7)*%
X206020000Y-83200000D03*
%TO.P,U8,J3-8,IO19*%
%TO.N,/MISO*%
X203480000Y-83200000D03*
%TO.P,U8,J3-9,IO18*%
%TO.N,/SCLK*%
X200940000Y-83200000D03*
%TO.P,U8,J3-10,IO5*%
%TO.N,/CS*%
X198400000Y-83200000D03*
%TO.P,U8,J3-11,IO17*%
%TO.N,/IO_17*%
X195860000Y-83200000D03*
%TO.P,U8,J3-12,IO16*%
%TO.N,/IO_16*%
X193320000Y-83200000D03*
%TO.P,U8,J3-13,IO4*%
%TO.N,/INT*%
X190780000Y-83200000D03*
%TO.P,U8,J3-14,IO0*%
%TO.N,unconnected-(U8-IO0-PadJ3-14)*%
X188240000Y-83200000D03*
%TO.P,U8,J3-15,IO2*%
%TO.N,/IO_2*%
X185700000Y-83200000D03*
%TO.P,U8,J3-16,IO15*%
%TO.N,/IO_15*%
X183160000Y-83200000D03*
%TO.P,U8,J3-17,SD1*%
%TO.N,unconnected-(U8-SD1-PadJ3-17)*%
X180620000Y-83200000D03*
%TO.P,U8,J3-18,SD0*%
%TO.N,unconnected-(U8-SD0-PadJ3-18)*%
X178080000Y-83200000D03*
%TO.P,U8,J3-19,CLK*%
%TO.N,unconnected-(U8-CLK-PadJ3-19)*%
X175540000Y-83200000D03*
%TD*%
D23*
%TO.P,D11,1,K*%
%TO.N,Net-(D11-K)*%
X122975000Y-113500000D03*
%TO.P,D11,2,A*%
%TO.N,Net-(D11-A)*%
X125025000Y-113500000D03*
%TD*%
D19*
%TO.P,F11,1*%
%TO.N,Net-(F11-Pad1)*%
X245500000Y-123750000D03*
X245500000Y-128350000D03*
%TO.P,F11,2*%
%TO.N,Net-(J11-Pin_2)*%
X245500000Y-139650000D03*
X245500000Y-144250000D03*
%TD*%
D33*
%TO.N,+5V*%
X249527200Y-79348100D03*
X169625600Y-116234600D03*
%TO.N,GND*%
X250513600Y-82527300D03*
X82567800Y-105228200D03*
X254168800Y-102184000D03*
X36817400Y-101053400D03*
X44579100Y-110742700D03*
X150871400Y-98398900D03*
X150993000Y-111290300D03*
X254936200Y-73221300D03*
%TO.N,+3.3V*%
X126012200Y-81374100D03*
%TO.N,/IO_17*%
X195860000Y-92137100D03*
%TO.N,Net-(Q3-B)*%
X87860100Y-103000000D03*
X87860100Y-109712500D03*
%TO.N,Net-(Q5-B)*%
X116950000Y-99275300D03*
X116950000Y-110693400D03*
%TO.N,/IO_25*%
X180788800Y-101087200D03*
X190874600Y-62791800D03*
%TO.N,/IO_26*%
X215800600Y-96916100D03*
%TO.N,/IO_16*%
X193320000Y-90024700D03*
%TO.N,Net-(Q10-B)*%
X219988400Y-101405300D03*
X219988400Y-112450600D03*
%TO.N,/MOSI*%
X124751000Y-86470500D03*
%TO.N,/IO_2*%
X185700000Y-87734500D03*
%TO.N,/IO_13*%
X170100600Y-93288200D03*
%TO.N,/IO_32*%
X240973900Y-101000000D03*
%TO.N,/IO_12*%
X172622900Y-101000000D03*
%TO.N,/IO_33*%
X222183500Y-101000000D03*
%TO.N,/IO_15*%
X176284300Y-96916100D03*
%TO.N,/IO_14*%
X165295300Y-99639700D03*
%TO.N,/IO_27*%
X241085000Y-90856800D03*
X233419400Y-56262900D03*
%TO.N,Net-(D7-K)*%
X73234200Y-114437500D03*
%TO.N,Net-(D9-K)*%
X92182100Y-114759500D03*
%TO.N,Net-(D13-K)*%
X131622900Y-114731600D03*
%TO.N,Net-(D20-K)*%
X174812900Y-114731600D03*
X170928000Y-79818900D03*
%TO.N,Net-(D21-K)*%
X166931800Y-78379100D03*
X166931800Y-118980700D03*
%TO.N,Net-(D22-K)*%
X214753700Y-114731600D03*
X173482400Y-77536200D03*
%TO.N,Net-(D23-K)*%
X133707300Y-80463600D03*
%TO.N,Net-(D24-K)*%
X230722400Y-87367100D03*
X234474100Y-114731600D03*
X84250000Y-88796000D03*
%TO.N,Net-(D25-K)*%
X251420900Y-87922500D03*
X254444500Y-114731600D03*
X109558300Y-90809900D03*
%TD*%
D34*
%TO.N,+5V*%
X90000000Y-115960000D02*
X90000000Y-114500000D01*
X254699500Y-126380000D02*
X234734200Y-126380000D01*
X234734200Y-126380000D02*
X222738200Y-126380000D01*
X74773100Y-115988200D02*
X89971800Y-115988200D01*
X188039700Y-115960300D02*
X189500000Y-114500000D01*
X170460300Y-115960300D02*
X188039700Y-115960300D01*
X141437800Y-115960300D02*
X147539700Y-115960300D01*
X222738200Y-115960300D02*
X222738200Y-126380000D01*
X251850000Y-79300000D02*
X251850000Y-80778700D01*
X130460300Y-115960300D02*
X141437800Y-115960300D01*
X209000000Y-114500000D02*
X210460300Y-115960300D01*
X133433700Y-126380000D02*
X113234200Y-126380000D01*
X250073200Y-79348100D02*
X250121300Y-79300000D01*
X251500000Y-81776000D02*
X251500000Y-81128700D01*
X251742300Y-83036300D02*
X251742300Y-82018300D01*
X251500000Y-84500000D02*
X251500000Y-83278600D01*
X214734100Y-126380000D02*
X193734100Y-126380000D01*
X74773100Y-124841100D02*
X74773100Y-115988200D01*
X113234200Y-126380000D02*
X93234100Y-126380000D01*
X71488200Y-115988200D02*
X74773100Y-115988200D01*
X153734100Y-126380000D02*
X141437800Y-126380000D01*
X170180100Y-115680100D02*
X170460300Y-115960300D01*
X249500000Y-114500000D02*
X250960300Y-115960300D01*
X48500000Y-114500000D02*
X48500000Y-122145900D01*
X248039700Y-115960300D02*
X249500000Y-114500000D01*
X170180100Y-115680100D02*
X169625600Y-116234600D01*
X231460300Y-115960300D02*
X248039700Y-115960300D01*
X230000000Y-114500000D02*
X231460300Y-115960300D01*
X246968400Y-81128700D02*
X245462500Y-79622800D01*
X250364600Y-79300000D02*
X250121300Y-79300000D01*
X210460300Y-115960300D02*
X222738200Y-115960300D01*
X52734100Y-126380000D02*
X73234200Y-126380000D01*
X89971800Y-115988200D02*
X90000000Y-115960000D01*
X249527200Y-79348100D02*
X250073200Y-79348100D01*
X169000000Y-114500000D02*
X170180100Y-115680100D01*
X147539700Y-115960300D02*
X149000000Y-114500000D01*
X250960300Y-115960300D02*
X269539700Y-115960300D01*
X222738200Y-126380000D02*
X214734100Y-126380000D01*
X251742300Y-82018300D02*
X251500000Y-81776000D01*
X73234200Y-126380000D02*
X74773100Y-124841100D01*
X193734100Y-126380000D02*
X173734200Y-126380000D01*
X93234100Y-126380000D02*
X73234200Y-126380000D01*
X245462500Y-79622800D02*
X245462500Y-79500000D01*
X251500000Y-81128700D02*
X251850000Y-80778700D01*
X250985700Y-79300000D02*
X250364600Y-79300000D01*
X269539700Y-115960300D02*
X271000000Y-114500000D01*
X32234100Y-126380000D02*
X52734100Y-126380000D01*
X48500000Y-122145900D02*
X52734100Y-126380000D01*
X141437800Y-126380000D02*
X133433700Y-126380000D01*
X251500000Y-81128700D02*
X246968400Y-81128700D01*
X90000000Y-115960000D02*
X90028200Y-115988200D01*
X251850000Y-79300000D02*
X250985700Y-79300000D01*
X141437800Y-115960300D02*
X141437800Y-126380000D01*
X228539700Y-115960300D02*
X230000000Y-114500000D01*
X108011800Y-115988200D02*
X109500000Y-114500000D01*
X251500000Y-83278600D02*
X251742300Y-83036300D01*
X70000000Y-114500000D02*
X71488200Y-115988200D01*
X222738200Y-115960300D02*
X228539700Y-115960300D01*
X90028200Y-115988200D02*
X108011800Y-115988200D01*
X153734100Y-126380000D02*
X173734200Y-126380000D01*
X129000000Y-114500000D02*
X130460300Y-115960300D01*
%TO.N,GND*%
X93250000Y-61476600D02*
X93250000Y-59700000D01*
X76500000Y-103000000D02*
X76500000Y-105295400D01*
X247537500Y-79313200D02*
X246230600Y-78006300D01*
X247737500Y-74700000D02*
X247537500Y-74500000D01*
X230055700Y-95686700D02*
X199084200Y-95686700D01*
X234553500Y-101787500D02*
X235766000Y-103000000D01*
X244175000Y-83200000D02*
X245393800Y-84418700D01*
X95500000Y-103000000D02*
X95500000Y-104845400D01*
X95500000Y-104845400D02*
X95050000Y-105295400D01*
X75550000Y-106245400D02*
X76500000Y-105295400D01*
X174549800Y-101773000D02*
X174549800Y-100263000D01*
X135050000Y-103950000D02*
X135050000Y-108509400D01*
X35053400Y-101053400D02*
X35935400Y-101053400D01*
X135813600Y-103000000D02*
X136000000Y-103000000D01*
X235050000Y-106494200D02*
X236000000Y-105544200D01*
X244749800Y-78006300D02*
X244122600Y-78633500D01*
X134509700Y-101696100D02*
X135813600Y-103000000D01*
X172685700Y-98398900D02*
X150871400Y-98398900D01*
X235050000Y-111088300D02*
X235050000Y-106494200D01*
X112500000Y-62190000D02*
X93963400Y-62190000D01*
X235099000Y-99639000D02*
X234553500Y-100184500D01*
X134509700Y-100227300D02*
X134509700Y-101696100D01*
X35935400Y-101053400D02*
X36817400Y-101053400D01*
X251850000Y-74700000D02*
X251850000Y-73221300D01*
X247537500Y-79500000D02*
X247537500Y-79313200D01*
X55000000Y-103000000D02*
X55000000Y-110292700D01*
X55000000Y-110292700D02*
X54550000Y-110742700D01*
X48978700Y-61428700D02*
X58750000Y-61428700D01*
X234553500Y-100184500D02*
X230055700Y-95686700D01*
X47250000Y-59700000D02*
X48978700Y-61428700D01*
X83526600Y-61476600D02*
X72026600Y-61476600D01*
X136000000Y-103000000D02*
X135050000Y-103950000D01*
X254168800Y-102184000D02*
X251623800Y-99639000D01*
X68521300Y-61428700D02*
X70250000Y-59700000D01*
X254556000Y-102184000D02*
X255740000Y-101000000D01*
X75550000Y-112562500D02*
X75550000Y-106245400D01*
X35935400Y-101053400D02*
X34732200Y-101053400D01*
X174549800Y-100263000D02*
X172685700Y-98398900D01*
X135050000Y-108509400D02*
X135050000Y-112562500D01*
X116000000Y-108509400D02*
X115050000Y-109459400D01*
X236000000Y-105544200D02*
X236000000Y-103000000D01*
X215550000Y-112464700D02*
X215550000Y-112562500D01*
X83526600Y-61476600D02*
X81750000Y-59700000D01*
X246230600Y-78006300D02*
X244749800Y-78006300D01*
X193751100Y-101019800D02*
X195731300Y-103000000D01*
X176000000Y-103892800D02*
X176000000Y-103000000D01*
X37478700Y-61428700D02*
X45521300Y-61428700D01*
X33567500Y-112080000D02*
X34050000Y-112562500D01*
X196000000Y-103000000D02*
X195050000Y-103950000D01*
X255740000Y-101000000D02*
X256000000Y-101000000D01*
X135050000Y-108509400D02*
X116000000Y-108509400D01*
X250513600Y-82527300D02*
X247285200Y-82527300D01*
X82567800Y-105295400D02*
X76500000Y-105295400D01*
X58750000Y-61428700D02*
X68521300Y-61428700D01*
X82567800Y-105228200D02*
X82567800Y-105295400D01*
X34732200Y-101053400D02*
X33567500Y-102218100D01*
X217000000Y-103000000D02*
X220494200Y-106494200D01*
X221260000Y-83200000D02*
X244122600Y-83200000D01*
X175776800Y-103000000D02*
X174549800Y-101773000D01*
X175550000Y-104342800D02*
X176000000Y-103892800D01*
X234553500Y-100184500D02*
X234553500Y-101787500D01*
X116000000Y-103000000D02*
X116000000Y-108509400D01*
X95050000Y-105295400D02*
X95050000Y-112562500D01*
X33567500Y-102218100D02*
X33567500Y-112080000D01*
X195050000Y-103950000D02*
X195050000Y-112562500D01*
X72026600Y-61476600D02*
X70250000Y-59700000D01*
X220494200Y-106494200D02*
X235050000Y-106494200D01*
X93250000Y-61476600D02*
X83526600Y-61476600D01*
X255050000Y-112562500D02*
X254556000Y-112068500D01*
X150871400Y-98398900D02*
X136338100Y-98398900D01*
X216926400Y-111088300D02*
X215550000Y-112464700D01*
X235766000Y-103000000D02*
X236000000Y-103000000D01*
X54550000Y-110742700D02*
X54550000Y-112562500D01*
X156342800Y-104342800D02*
X175550000Y-104342800D01*
X254556000Y-102184000D02*
X254168800Y-102184000D01*
X35750000Y-59700000D02*
X37478700Y-61428700D01*
X35000000Y-101000000D02*
X35053400Y-101053400D01*
X251850000Y-74700000D02*
X247737500Y-74700000D01*
X155000000Y-103000000D02*
X156342800Y-104342800D01*
X58750000Y-59700000D02*
X58750000Y-61428700D01*
X112500000Y-59650000D02*
X133500000Y-59650000D01*
X247285200Y-82527300D02*
X245393800Y-84418700D01*
X174549800Y-100263000D02*
X175157000Y-99655800D01*
X244122600Y-78633500D02*
X244122600Y-83200000D01*
X235050000Y-112562500D02*
X235050000Y-111088300D01*
X115050000Y-109459400D02*
X115050000Y-112562500D01*
X93963400Y-62190000D02*
X93250000Y-61476600D01*
X235050000Y-111088300D02*
X216926400Y-111088300D01*
X153277800Y-111290300D02*
X150993000Y-111290300D01*
X254556000Y-112068500D02*
X254556000Y-102184000D01*
X175550000Y-112562500D02*
X175550000Y-104342800D01*
X199084200Y-95686700D02*
X193751100Y-101019800D01*
X175157000Y-99655800D02*
X192387100Y-99655800D01*
X54550000Y-110742700D02*
X44579100Y-110742700D01*
X245393800Y-84418700D02*
X245475000Y-84500000D01*
X251623800Y-99639000D02*
X235099000Y-99639000D01*
X251850000Y-73221300D02*
X254936200Y-73221300D01*
X176000000Y-103000000D02*
X175776800Y-103000000D01*
X95050000Y-105295400D02*
X82567800Y-105295400D01*
X136338100Y-98398900D02*
X134509700Y-100227300D01*
X192387100Y-99655800D02*
X193751100Y-101019800D01*
X195731300Y-103000000D02*
X196000000Y-103000000D01*
X45521300Y-61428700D02*
X47250000Y-59700000D01*
X244122600Y-83200000D02*
X244175000Y-83200000D01*
X154550000Y-112562500D02*
X153277800Y-111290300D01*
%TO.N,+3.3V*%
X235692500Y-64730000D02*
X245462500Y-74500000D01*
X38660300Y-78879700D02*
X53904200Y-78879700D01*
X258150000Y-74371300D02*
X256745500Y-74371300D01*
X251850000Y-77000000D02*
X247744900Y-77000000D01*
X247744900Y-77000000D02*
X245462500Y-74717600D01*
X56398600Y-81374100D02*
X126012200Y-81374100D01*
X245462500Y-74717600D02*
X245462500Y-74500000D01*
X258150000Y-77000000D02*
X258150000Y-74371300D01*
X133500000Y-64730000D02*
X235692500Y-64730000D01*
X256745500Y-74371300D02*
X254116800Y-77000000D01*
X254116800Y-77000000D02*
X251850000Y-77000000D01*
X53904200Y-78879700D02*
X56398600Y-81374100D01*
X37040000Y-80500000D02*
X38660300Y-78879700D01*
%TO.N,Net-(D1-A)*%
X249016100Y-85991100D02*
X252194700Y-85991100D01*
X253500000Y-84685800D02*
X253500000Y-84500000D01*
X247525000Y-84500000D02*
X249016100Y-85991100D01*
X252194700Y-85991100D02*
X253500000Y-84685800D01*
%TO.N,Net-(D3-A)*%
X44025000Y-113500000D02*
X45025000Y-112500000D01*
X45025000Y-112500000D02*
X48500000Y-112500000D01*
%TO.N,Net-(D5-A)*%
X64525000Y-113500000D02*
X65525000Y-112500000D01*
X65525000Y-112500000D02*
X70000000Y-112500000D01*
%TO.N,Net-(D7-A)*%
X85115900Y-113500000D02*
X86115900Y-112500000D01*
X86115900Y-112500000D02*
X90000000Y-112500000D01*
%TO.N,/IO_17*%
X92961400Y-92038600D02*
X190481800Y-92038600D01*
X190481800Y-92038600D02*
X190580300Y-92137100D01*
X190580300Y-92137100D02*
X195860000Y-92137100D01*
X84000000Y-101000000D02*
X92961400Y-92038600D01*
%TO.N,Net-(D9-A)*%
X106025000Y-112500000D02*
X109500000Y-112500000D01*
X105025000Y-113500000D02*
X106025000Y-112500000D01*
%TO.N,Net-(Q2-B)*%
X63000000Y-103000000D02*
X61363000Y-103000000D01*
X59540300Y-104822700D02*
X55717600Y-101000000D01*
X59540300Y-109472200D02*
X56450000Y-112562500D01*
X55717600Y-101000000D02*
X55000000Y-101000000D01*
X61363000Y-103000000D02*
X59540300Y-104822700D01*
X59540300Y-104822700D02*
X59540300Y-109472200D01*
%TO.N,Net-(Q3-B)*%
X78745800Y-103000000D02*
X84000000Y-103000000D01*
X76745800Y-101000000D02*
X78745800Y-103000000D01*
X84000000Y-103000000D02*
X87860100Y-103000000D01*
X80300000Y-109712500D02*
X77450000Y-112562500D01*
X87860100Y-109712500D02*
X80300000Y-109712500D01*
X76500000Y-101000000D02*
X76745800Y-101000000D01*
%TO.N,Net-(Q4-B)*%
X99361200Y-103000000D02*
X99361200Y-110151300D01*
X97361200Y-101000000D02*
X99361200Y-103000000D01*
X95500000Y-101000000D02*
X97361200Y-101000000D01*
X99361200Y-110151300D02*
X96950000Y-112562500D01*
X99361200Y-103000000D02*
X103000000Y-103000000D01*
%TO.N,Net-(Q5-B)*%
X116950000Y-110693400D02*
X116950000Y-112562500D01*
X116500500Y-101000000D02*
X116500500Y-99724800D01*
X116500500Y-99724800D02*
X116950000Y-99275300D01*
X116000000Y-101000000D02*
X116500500Y-101000000D01*
X116500500Y-101000000D02*
X118500500Y-103000000D01*
X118500500Y-103000000D02*
X123000000Y-103000000D01*
%TO.N,/INT*%
X112500000Y-72350000D02*
X114078700Y-72350000D01*
X118023400Y-76294700D02*
X114078700Y-72350000D01*
X190780000Y-83200000D02*
X183874700Y-76294700D01*
X183874700Y-76294700D02*
X118023400Y-76294700D01*
%TO.N,Net-(D11-A)*%
X126025000Y-112500000D02*
X129000000Y-112500000D01*
X125025000Y-113500000D02*
X126025000Y-112500000D01*
%TO.N,/IO_25*%
X200940000Y-57800000D02*
X195948200Y-62791800D01*
X195948200Y-62791800D02*
X190874600Y-62791800D01*
X182912800Y-101087200D02*
X183000000Y-101000000D01*
X180788800Y-101087200D02*
X182912800Y-101087200D01*
%TO.N,Net-(D13-A)*%
X144525000Y-113500000D02*
X145525000Y-112500000D01*
X145525000Y-112500000D02*
X149000000Y-112500000D01*
%TO.N,/IO_26*%
X207083900Y-96916100D02*
X203000000Y-101000000D01*
X215800600Y-96916100D02*
X207083900Y-96916100D01*
%TO.N,/SCL*%
X44297100Y-85217100D02*
X39580000Y-80500000D01*
X216180000Y-83200000D02*
X213765200Y-85614800D01*
X213765200Y-85614800D02*
X125633000Y-85614800D01*
X125235300Y-85217100D02*
X44297100Y-85217100D01*
X125633000Y-85614800D02*
X125235300Y-85217100D01*
%TO.N,/SDA*%
X42120000Y-80500000D02*
X43698700Y-80500000D01*
X125976000Y-84747700D02*
X125589700Y-84361400D01*
X208560000Y-83200000D02*
X207012300Y-84747700D01*
X125589700Y-84361400D02*
X47560100Y-84361400D01*
X207012300Y-84747700D02*
X125976000Y-84747700D01*
X47560100Y-84361400D02*
X43698700Y-80500000D01*
%TO.N,/IO_16*%
X109049400Y-89581200D02*
X108605900Y-90024700D01*
X73975300Y-90024700D02*
X63000000Y-101000000D01*
X108605900Y-90024700D02*
X73975300Y-90024700D01*
X110067300Y-89581200D02*
X109049400Y-89581200D01*
X110510800Y-90024700D02*
X110067300Y-89581200D01*
X193320000Y-90024700D02*
X110510800Y-90024700D01*
%TO.N,Net-(D20-A)*%
X185025000Y-113500000D02*
X186025000Y-112500000D01*
X186025000Y-112500000D02*
X189500000Y-112500000D01*
%TO.N,Net-(D21-A)*%
X204025000Y-113500000D02*
X205025000Y-112500000D01*
X205025000Y-112500000D02*
X209000000Y-112500000D01*
%TO.N,Net-(D22-A)*%
X225525000Y-113500000D02*
X226525000Y-112500000D01*
X226525000Y-112500000D02*
X230000000Y-112500000D01*
%TO.N,Net-(D23-A)*%
X165025000Y-112500000D02*
X164025000Y-113500000D01*
X169000000Y-112500000D02*
X165025000Y-112500000D01*
%TO.N,Net-(D24-A)*%
X245025000Y-113500000D02*
X246025000Y-112500000D01*
X246025000Y-112500000D02*
X249500000Y-112500000D01*
%TO.N,Net-(D25-A)*%
X267025000Y-112500000D02*
X271000000Y-112500000D01*
X266025000Y-113500000D02*
X267025000Y-112500000D01*
%TO.N,Net-(Q6-B)*%
X136000000Y-101000000D02*
X137183700Y-101000000D01*
X139183700Y-103000000D02*
X143000000Y-103000000D01*
X139183700Y-110328800D02*
X136950000Y-112562500D01*
X139183700Y-103000000D02*
X139183700Y-110328800D01*
X137183700Y-101000000D02*
X139183700Y-103000000D01*
%TO.N,Net-(Q7-B)*%
X162500000Y-103000000D02*
X159518100Y-103000000D01*
X159518100Y-103000000D02*
X157518100Y-101000000D01*
X156450000Y-112471900D02*
X156450000Y-112562500D01*
X155000000Y-101000000D02*
X154794000Y-101000000D01*
X153529200Y-102264800D02*
X153529200Y-109551100D01*
X153529200Y-109551100D02*
X156450000Y-112471900D01*
X154794000Y-101000000D02*
X153529200Y-102264800D01*
X157518100Y-101000000D02*
X155000000Y-101000000D01*
%TO.N,Net-(Q8-B)*%
X180670200Y-109342300D02*
X177450000Y-112562500D01*
X178670200Y-101000000D02*
X180670200Y-103000000D01*
X180670200Y-103000000D02*
X180670200Y-109342300D01*
X176000000Y-101000000D02*
X178670200Y-101000000D01*
X180670200Y-103000000D02*
X183000000Y-103000000D01*
%TO.N,Net-(Q9-B)*%
X199527900Y-103976600D02*
X196551300Y-101000000D01*
X196551300Y-101000000D02*
X196000000Y-101000000D01*
X199527900Y-109984600D02*
X196950000Y-112562500D01*
X203000000Y-103000000D02*
X200504500Y-103000000D01*
X200504500Y-103000000D02*
X199527900Y-103976600D01*
X199527900Y-103976600D02*
X199527900Y-109984600D01*
%TO.N,Net-(Q10-B)*%
X219583100Y-101000000D02*
X219988400Y-101405300D01*
X221583100Y-103000000D02*
X219988400Y-101405300D01*
X217561900Y-112450600D02*
X219988400Y-112450600D01*
X217000000Y-101000000D02*
X219583100Y-101000000D01*
X224000000Y-103000000D02*
X221583100Y-103000000D01*
X217450000Y-112562500D02*
X217561900Y-112450600D01*
%TO.N,Net-(Q11-B)*%
X240963200Y-103000000D02*
X243000000Y-103000000D01*
X236000000Y-101000000D02*
X238963200Y-101000000D01*
X238963200Y-101000000D02*
X240963200Y-103000000D01*
X240963200Y-103000000D02*
X240963200Y-108549300D01*
X240963200Y-108549300D02*
X236950000Y-112562500D01*
%TO.N,Net-(Q12-B)*%
X256950000Y-103950000D02*
X256000000Y-103000000D01*
X256000000Y-103000000D02*
X264500000Y-103000000D01*
X256950000Y-112562500D02*
X256950000Y-103950000D01*
%TO.N,Net-(Q1-B)*%
X35000000Y-103000000D02*
X35950000Y-103000000D01*
X43000000Y-103000000D02*
X35950000Y-103000000D01*
X35950000Y-112562500D02*
X35950000Y-103000000D01*
%TO.N,/CS*%
X124976500Y-75439000D02*
X119347500Y-69810000D01*
X190639000Y-75439000D02*
X124976500Y-75439000D01*
X119347500Y-69810000D02*
X112500000Y-69810000D01*
X198400000Y-83200000D02*
X190639000Y-75439000D01*
%TO.N,/SCLK*%
X122844700Y-67270000D02*
X112500000Y-67270000D01*
X200940000Y-83200000D02*
X192323300Y-74583300D01*
X130158000Y-74583300D02*
X122844700Y-67270000D01*
X192323300Y-74583300D02*
X130158000Y-74583300D01*
%TO.N,/MOSI*%
X215449500Y-86470500D02*
X124751000Y-86470500D01*
X218720000Y-83200000D02*
X215449500Y-86470500D01*
%TO.N,/MISO*%
X133500000Y-72350000D02*
X192630000Y-72350000D01*
X192630000Y-72350000D02*
X203480000Y-83200000D01*
%TO.N,/IO_2*%
X86861600Y-87734500D02*
X86694400Y-87567300D01*
X185700000Y-87734500D02*
X86861600Y-87734500D01*
X56432700Y-87567300D02*
X43000000Y-101000000D01*
X86694400Y-87567300D02*
X56432700Y-87567300D01*
%TO.N,/IO_13*%
X110711800Y-93288200D02*
X170100600Y-93288200D01*
X103000000Y-101000000D02*
X110711800Y-93288200D01*
%TO.N,/IO_32*%
X243000000Y-101000000D02*
X240973900Y-101000000D01*
%TO.N,/IO_12*%
X162500000Y-101000000D02*
X172622900Y-101000000D01*
%TO.N,/IO_33*%
X222183500Y-101000000D02*
X224000000Y-101000000D01*
%TO.N,/IO_15*%
X176284300Y-96916100D02*
X127083900Y-96916100D01*
X127083900Y-96916100D02*
X123000000Y-101000000D01*
%TO.N,/IO_14*%
X143000000Y-101000000D02*
X144360300Y-99639700D01*
X144360300Y-99639700D02*
X165295300Y-99639700D01*
%TO.N,/IO_27*%
X254356800Y-90856800D02*
X241085000Y-90856800D01*
X197397100Y-56262900D02*
X195860000Y-57800000D01*
X233419400Y-56262900D02*
X197397100Y-56262900D01*
X264500000Y-101000000D02*
X254356800Y-90856800D01*
%TO.N,Net-(D3-K)*%
X41037500Y-114437500D02*
X35000000Y-114437500D01*
X35000000Y-121074100D02*
X35000000Y-114437500D01*
X41975000Y-113500000D02*
X41037500Y-114437500D01*
X32234100Y-123840000D02*
X35000000Y-121074100D01*
%TO.N,Net-(D5-K)*%
X62475000Y-113500000D02*
X61537500Y-114437500D01*
X52734100Y-123840000D02*
X55500000Y-121074100D01*
X55500000Y-121074100D02*
X55500000Y-114437500D01*
X61537500Y-114437500D02*
X55500000Y-114437500D01*
%TO.N,Net-(D7-K)*%
X82128400Y-114437500D02*
X76500000Y-114437500D01*
X76500000Y-114437500D02*
X73234200Y-114437500D01*
X83065900Y-113500000D02*
X82128400Y-114437500D01*
%TO.N,Net-(D9-K)*%
X92182100Y-114759500D02*
X95678000Y-114759500D01*
X95678000Y-114759500D02*
X96000000Y-114437500D01*
X102975000Y-113500000D02*
X102037500Y-114437500D01*
X102037500Y-114437500D02*
X96000000Y-114437500D01*
%TO.N,Net-(D11-K)*%
X116000000Y-121074200D02*
X116000000Y-114437500D01*
X113234200Y-123840000D02*
X116000000Y-121074200D01*
X122975000Y-113500000D02*
X122037500Y-114437500D01*
X122037500Y-114437500D02*
X116000000Y-114437500D01*
%TO.N,Net-(D13-K)*%
X131622900Y-114731600D02*
X135705900Y-114731600D01*
X141537500Y-114437500D02*
X136000000Y-114437500D01*
X142475000Y-113500000D02*
X141537500Y-114437500D01*
X135705900Y-114731600D02*
X136000000Y-114437500D01*
%TO.N,Net-(D20-K)*%
X49750000Y-71700000D02*
X51328700Y-71700000D01*
X166049900Y-79234800D02*
X166634000Y-79818900D01*
X176205900Y-114731600D02*
X176500000Y-114437500D01*
X51328700Y-71700000D02*
X58863500Y-79234800D01*
X182037500Y-114437500D02*
X176500000Y-114437500D01*
X58863500Y-79234800D02*
X166049900Y-79234800D01*
X174812900Y-114731600D02*
X176205900Y-114731600D01*
X182975000Y-113500000D02*
X182037500Y-114437500D01*
X166634000Y-79818900D02*
X170928000Y-79818900D01*
%TO.N,Net-(D21-K)*%
X69507800Y-78379100D02*
X62828700Y-71700000D01*
X193734100Y-118980700D02*
X166931800Y-118980700D01*
X196000000Y-116714800D02*
X193734100Y-118980700D01*
X196000000Y-114437500D02*
X201037500Y-114437500D01*
X166931800Y-78379100D02*
X69507800Y-78379100D01*
X61250000Y-71700000D02*
X62828700Y-71700000D01*
X201037500Y-114437500D02*
X201975000Y-113500000D01*
X196000000Y-114437500D02*
X196000000Y-116714800D01*
X193734100Y-118980700D02*
X193734100Y-123840000D01*
%TO.N,Net-(D22-K)*%
X214753700Y-114731600D02*
X216205900Y-114731600D01*
X72750000Y-71700000D02*
X74328700Y-71700000D01*
X79779100Y-77150400D02*
X74328700Y-71700000D01*
X173482400Y-77536200D02*
X173096600Y-77150400D01*
X223475000Y-113500000D02*
X222537500Y-114437500D01*
X173096600Y-77150400D02*
X79779100Y-77150400D01*
X216205900Y-114731600D02*
X216500000Y-114437500D01*
X222537500Y-114437500D02*
X216500000Y-114437500D01*
%TO.N,Net-(D23-K)*%
X155500000Y-122074100D02*
X155500000Y-114437500D01*
X153734100Y-123840000D02*
X155500000Y-122074100D01*
X161037500Y-114437500D02*
X155500000Y-114437500D01*
X57844300Y-80090500D02*
X133334200Y-80090500D01*
X53319200Y-75565400D02*
X57844300Y-80090500D01*
X133334200Y-80090500D02*
X133707300Y-80463600D01*
X43694100Y-75565400D02*
X53319200Y-75565400D01*
X39828700Y-71700000D02*
X43694100Y-75565400D01*
X38250000Y-71700000D02*
X39828700Y-71700000D01*
X161975000Y-113500000D02*
X161037500Y-114437500D01*
%TO.N,Net-(D24-K)*%
X84320500Y-88725500D02*
X84250000Y-88796000D01*
X242975000Y-113500000D02*
X242037500Y-114437500D01*
X191450000Y-87367100D02*
X189853800Y-88963300D01*
X189853800Y-88963300D02*
X110659500Y-88963300D01*
X234474100Y-114731600D02*
X235705900Y-114731600D01*
X235705900Y-114731600D02*
X236000000Y-114437500D01*
X110421700Y-88725500D02*
X84320500Y-88725500D01*
X110659500Y-88963300D02*
X110421700Y-88725500D01*
X230722400Y-87367100D02*
X191450000Y-87367100D01*
X242037500Y-114437500D02*
X236000000Y-114437500D01*
%TO.N,Net-(D25-K)*%
X195379200Y-90743800D02*
X232363500Y-90743800D01*
X109865200Y-91116800D02*
X191197300Y-91116800D01*
X232363500Y-90743800D02*
X235184800Y-87922500D01*
X263975000Y-113500000D02*
X263037500Y-114437500D01*
X194845900Y-91277100D02*
X195379200Y-90743800D01*
X191357600Y-91277100D02*
X194845900Y-91277100D01*
X191197300Y-91116800D02*
X191357600Y-91277100D01*
X255705900Y-114731600D02*
X256000000Y-114437500D01*
X263037500Y-114437500D02*
X256000000Y-114437500D01*
X235184800Y-87922500D02*
X251420900Y-87922500D01*
X109558300Y-90809900D02*
X109865200Y-91116800D01*
X254444500Y-114731600D02*
X255705900Y-114731600D01*
%TD*%
M02*
